<svg width="539" height="554" viewBox="0 0 539 554" fill="none" xmlns="http://www.w3.org/2000/svg">
<path d="M521.194 455.815C516.92 468.388 508.84 501.112 483.058 503.275C473.059 504.116 442.061 501.059 394.059 503.775C355.022 505.982 295.719 503.11 261.014 502.284C226.309 501.453 142.816 503.921 105.136 503.105C67.3368 502.284 22.5824 514.52 17.1009 466.541C12.5029 426.318 17.8502 396.808 20.1653 378.653C24.0005 348.576 20.971 334.014 21.0918 327.712C22.1661 327.283 244.376 327.877 514.497 327.877C513.171 345.566 514.449 363.358 518.294 380.661C522.501 397.533 526.188 441.124 521.194 455.815Z" fill="#FFF5DB"/>
<path d="M522.696 449.025C522.434 451.336 521.928 453.611 521.194 455.813C516.92 468.387 508.84 501.161 483.058 503.275C471.562 493.25 455.665 479.597 451.73 477.279C445.392 473.525 425.069 454.913 404.15 450.713C383.231 446.513 371.156 442.458 366.44 439.607C361.724 436.756 353.919 428.503 350.826 426.549C347.669 424.039 344.669 421.333 341.842 418.445C338.162 415.295 330.94 409.743 330.795 406.132C330.65 402.52 336.833 398.924 345.228 403.431C353.624 407.937 369.974 422.185 371.301 418.584C372.628 414.983 371.301 409.582 368.506 405.376C365.71 401.171 348.027 384.819 341.989 382.119C335.621 379.755 328.714 379.337 322.115 380.914C317.995 382.263 307.529 387.222 303.997 380.614C300.466 374.005 307.384 372.952 310.768 371.012C314.152 369.072 320.788 363.807 324.766 363.208C328.744 362.609 341.417 361.405 347.304 363.958C347.304 363.958 338.906 351.645 333.75 350.6C328.593 349.555 318.723 357.057 310.623 349.103C310.623 349.103 308.711 345.951 314.308 343.1C319.905 340.248 331.394 333.342 342.148 337.241C352.901 341.141 356.433 346.4 359.678 348.802C363.029 347.896 366.553 347.89 369.908 348.783C373.263 349.677 376.333 351.439 378.821 353.9C378.641 353.549 372.87 342.468 369.249 340.547C365.57 338.596 356.143 337.389 354.669 334.39C353.267 331.539 351.333 328.819 361.399 327.881C361.92 327.831 362.473 327.684 363.064 327.64C366.323 327.381 369.598 327.429 372.848 327.785C376.422 328.012 379.822 329.438 382.517 331.84C386.679 336.188 390.382 340.968 393.566 346.101C399.844 354.703 406.896 362.69 414.63 369.959C421.704 376.11 433.185 395.931 436.725 399.236C440.221 402.49 444.008 405.402 448.037 407.935C451.867 410.337 465.715 420.842 471.314 423.532C475.308 425.472 505.658 440.553 522.696 449.025Z" fill="#FFCEB6"/>
<path d="M124.732 453.223L71.5549 503.902C45.7961 504.305 22.9783 500.889 17.7009 470.636C20.0804 468.466 22.9514 466.907 25.0248 465.194C30.3264 460.816 82.6254 419.942 82.6254 419.942C98.8121 424.522 112.485 436.699 124.732 453.223Z" fill="#FFCEB6"/>
<path d="M104.371 414.641C105.112 414.863 105.765 415.315 106.24 415.935C106.715 416.555 106.988 417.311 107.019 418.097C106.901 418.919 106.507 419.673 105.904 420.233C105.301 420.792 104.527 421.121 103.713 421.164C102.945 421.104 102.222 420.769 101.673 420.218C101.124 419.667 100.784 418.936 100.713 418.154C100.938 417.278 101.399 416.483 102.047 415.862C102.693 415.241 103.499 414.817 104.371 414.641Z" fill="#B8D7FF"/>
<path d="M97.5323 424.265C98.1409 424.312 98.7148 424.574 99.1526 425.007C99.5905 425.44 99.8648 426.017 99.9282 426.635C99.808 427.264 99.4989 427.839 99.0429 428.28C98.5869 428.722 98.0074 429.007 97.3849 429.098C96.7739 429.068 96.1905 428.831 95.7269 428.425C95.2633 428.019 94.9461 427.467 94.8254 426.857C94.9098 426.171 95.2265 425.537 95.7207 425.064C96.2149 424.591 96.8554 424.309 97.5323 424.265Z" fill="#C5CDF3"/>
<path d="M496.977 408.835C497.134 409.483 497.144 410.157 497.01 410.81C496.877 411.463 496.605 412.076 496.209 412.608C495.813 413.138 495.308 413.573 494.726 413.878C494.144 414.184 493.505 414.355 492.851 414.376C448.095 414.444 463.207 416.601 448.594 405.582C444.456 402.46 441.109 403.289 436.355 395.778C424.186 376.548 420.332 372.591 414.915 367.007C411.724 363.723 413.143 367.349 447.195 364.544C447.963 364.565 448.724 364.374 449.396 363.994C450.068 363.613 450.627 363.055 451.016 362.379C451.404 361.703 451.608 360.933 451.604 360.15C451.601 359.366 451.391 358.598 450.998 357.925C446.037 350.641 432.015 329.999 424.662 325.364C421.648 323.462 222.575 324.639 220.878 323.128C218.17 321.108 214.89 320.042 211.535 320.094C206.499 319.642 195.909 324.609 195.098 323.684C193.148 321.459 183.316 320.969 180.423 321.593C171.853 323.44 186.668 326.168 136.41 323.388C131.153 323.234 125.893 323.438 120.663 323.998C118.754 324.154 116.804 323.749 114.876 323.777C97.5638 324.023 102.253 321.139 89.899 337.54C88.5854 339.28 84.1379 344.818 74.8723 358.913C74.4507 359.482 74.1821 360.153 74.0925 360.861C74.0033 361.569 74.0963 362.287 74.3629 362.947C74.6295 363.607 75.0603 364.184 75.6122 364.622C76.1645 365.061 76.8194 365.345 77.5125 365.447C95.0715 366.123 133.603 365.548 134.987 365.548C120.973 387.597 127.649 379.56 110.421 395.242C110.359 395.296 108.272 397.685 106.843 396.837C102.962 394.522 99.6291 395.904 96.3689 398.205C91.0142 402.045 86.1207 406.512 81.7882 411.514C79.3976 414.25 79.4515 412.644 67.1484 412.455C67.0945 412.455 32.6986 413.618 29.4704 412.346C26.5913 411.21 28.0336 408.652 31.3504 403.59C33.7299 399.962 92.3159 320.105 93.4411 318.663C98.4047 312.309 96.6642 315.201 158.674 314.457C158.728 314.457 399.789 314.61 408.883 314.517C435.681 314.244 428.972 308.497 447.724 333.523C459.256 348.882 490.562 390.946 496.977 408.835Z" fill="white"/>
<path d="M497.86 417.308L496.123 433.627C462.553 416.974 465.832 418.739 466.076 418.4C492.346 418.4 493.075 418.881 497.86 417.308Z" fill="white"/>
<path d="M433.656 339.993C447.44 362.488 456.311 360.64 435.365 361.516C423.655 362.003 423.241 362.017 410.64 362.02C409.955 362.02 410.433 362.317 399.897 351.808C400.12 351.414 399.967 351.28 401.541 351.143C412.184 350.204 412.133 349.818 413.122 351.296C417.454 357.77 418.144 359.82 419.943 358.618C422.076 357.195 419.181 354.358 415.958 349.638C426.596 348.817 431.041 350.587 431.535 348.136C431.989 345.876 428.044 346.119 425.758 346.149C422.44 345.788 419.087 345.9 415.799 346.483C413.409 347.2 413.53 346.284 408.011 337.823C415.034 337.823 421.171 339.503 421.238 336.728C421.273 335.45 420.387 335.01 419.267 334.997C406.123 334.854 406.064 335.067 405.365 334.247C403.276 331.784 402.561 329.477 400.845 330.536C399.25 331.524 400.802 333.3 402.188 335.524C389.061 335.524 389.71 335.601 389.165 335.212C377.652 327.004 379.429 328.333 378.691 327.329C424.348 327.329 423.274 326.544 426.835 331.313C429.043 334.26 431.742 336.871 433.656 339.993Z" fill="white"/>
<path d="M432.372 268.818C432.439 273.434 432.992 292.35 432.122 297.858C431.048 304.559 429.241 310.587 422.112 310.899C405.713 311.616 113.828 312.133 106.601 311.889C99.7522 311.662 96.2044 310.215 93.8061 307.608C90.3574 303.856 89.858 297.125 90.0221 283.356C91.0772 195.564 89.4845 90.4298 90.2634 72.3733C90.6398 63.7076 88.0373 55.8626 100.7 52.3715C109.499 49.9441 139.417 51.3587 172.978 51.4219C210.846 51.4929 386.519 51.192 408.821 51.5968C428.306 51.9501 430.591 52.7763 431.053 61.0289C432.402 84.9326 432.018 244.811 432.372 268.818ZM421.554 292.523C422.51 281.988 423.912 164.916 422.641 79.7065C422.505 77.3544 421.493 75.1443 419.811 73.527C418.13 71.9102 415.906 71.0077 413.593 71.0048C406.858 70.6632 114.384 70.3429 109.013 70.827C101.957 71.0379 98.0899 74.5101 97.4641 83.3726C96.6074 95.7817 97.2142 124.288 96.9995 194.792C96.9995 194.847 97.7622 288.333 98.7692 292.438C99.0697 293.652 99.7551 294.731 100.719 295.508C101.683 296.286 102.871 296.717 104.1 296.736C396.652 299.418 420.877 299.976 421.554 292.523ZM260.352 62.4791C261.158 56.733 252.811 54.6069 252.161 62.2439C252.289 62.9043 252.493 63.5477 252.771 64.159C254.411 66.8377 259.536 68.2032 260.352 62.4791Z" fill="white"/>
<path d="M419.298 81.1581C419.47 84.4087 420.063 193.647 418.871 271.392C418.498 295.837 420.055 292.22 405.244 292.125C192.06 290.756 128.46 293.392 109.633 292.814C100.421 292.54 102.398 290.39 101.778 283.65C101.46 266.658 101.052 105.461 101.025 87.4625C101.009 76.104 104.71 74.4241 113.804 74.2734C118.759 74.1888 379.294 73.9123 412.307 74.5281C413.211 74.4104 414.13 74.4965 414.998 74.7808C415.865 75.065 416.661 75.5403 417.328 76.1735C417.995 76.8063 418.518 77.5804 418.858 78.442C419.198 79.3036 419.349 80.2308 419.298 81.1581ZM394.235 204.71C394.474 194.216 394.272 174.68 393.87 170.739C393.467 166.799 392.873 166.575 390.488 165.913C386.049 164.681 221.745 165.639 221.477 165.653C135.787 166.263 135.139 163.215 134.433 170.967C134.164 173.829 134.121 190.449 134.164 196.496C134.261 209.575 133.49 210.702 140.341 211.567C147.421 212.459 281.108 212.221 290.271 212.194C308.926 212.136 382.412 212.598 388.995 212.01C394.364 211.534 394.143 209.123 394.235 204.71ZM394.235 267.17C394.474 256.676 394.272 237.146 393.87 233.205C393.467 229.265 392.873 229.035 390.488 228.373C386.073 227.15 221.745 228.118 221.477 228.118C135.856 228.723 135.142 225.656 134.433 233.432C134.164 236.289 134.121 252.914 134.164 258.956C134.261 271.999 133.461 273.159 140.341 274.027C147.593 274.941 282.582 274.676 290.271 274.654C308.926 274.596 382.412 275.059 388.995 274.47C394.364 273.994 394.143 271.589 394.235 267.17ZM303.136 104.684C303.571 103.59 300.45 101.901 299.875 103.067C296.714 109.319 296.384 110.685 296.013 109.413C295.909 109.057 295.764 108.717 295.645 108.302C289.468 86.7729 269.075 79.7736 250.241 86.1076C236.329 90.787 228.022 103.059 227.53 118.327C227.394 123.063 228.192 127.779 229.877 132.195C231.562 136.611 234.1 140.638 237.34 144.037C240.58 147.435 244.457 150.137 248.74 151.982C253.024 153.827 257.627 154.777 262.278 154.776C270.095 154.901 277.72 152.304 283.893 147.416C290.065 142.527 294.416 135.639 296.225 127.89C296.449 126.939 296.59 125.969 296.647 124.993C296.647 124.804 296.851 123.564 295.196 123.241C294.915 123.184 293.854 123.102 293.542 123.734C293.257 124.42 293.043 125.134 292.906 125.865C289.911 140.819 277.866 150.445 262.415 151.039C254.274 151.101 246.44 147.878 240.624 142.074C234.809 136.271 231.484 128.358 231.376 120.064C231.135 86.9148 265.001 82.3535 279.757 91.9358C286.308 96.257 290.94 103.019 292.661 110.775C292.788 111.407 292.874 112.012 292.095 111.546C291.114 110.964 287.234 108.95 285.227 108.02C284.559 107.708 284.153 107.708 283.715 108.252C283.124 108.972 282.697 110.471 283.399 110.843C288.971 113.788 294.3 116.677 294.719 116.74C295.42 117.139 296.456 117.695 297.01 116.628C297.922 114.879 301.666 108.408 303.146 104.684H303.136ZM277.855 136.889C279.016 136.813 279.77 136.069 279.44 133.912C278.774 129.554 276.633 111.237 276.523 110.655C276.061 108.236 275.986 108.687 272.373 108.496C271.901 108.471 271.93 108.302 271.866 107.437C271.407 101.009 268.705 96.3936 262.329 96.3936C255.953 96.3936 253.254 101.018 252.795 107.437C252.733 108.302 252.757 108.433 252.287 108.496C249.717 108.843 248.401 107.992 248.135 110.655C248.084 111.163 246.44 125.414 245.549 132.011C245.192 134.651 244.394 136.873 247.992 136.936C253.665 137.043 277.318 136.928 277.866 136.889H277.855Z" fill="#D8E9FF"/>
<path d="M404.735 338.978C410.62 347.504 409.852 346.461 410.01 347.225C397.656 348.174 397.64 348.623 396.632 346.951C390.993 337.626 391.994 339.473 391.645 338.51C404.77 338.529 404.335 338.411 404.735 338.978Z" fill="white"/>
<path d="M391.044 172.694C391.556 183.417 391.755 195.438 391.479 201.917C391.371 204.429 391.876 208.429 389.316 208.894C383.824 209.896 143.464 209.108 143.188 209.1C136.838 208.916 137.11 207.408 136.991 202.306C136.803 194.357 136.879 176.511 137.26 171.684C137.497 168.8 138.751 168.809 141.74 168.628C148.814 168.201 166.857 167.99 202.33 168.228C292.508 168.839 261.713 167.766 331.297 167.968C342.846 168.001 384.571 168.075 386.875 168.242C391.097 168.529 390.885 169.416 391.044 172.694ZM277.411 192.014C277.567 190.833 277.545 189.633 277.347 188.457C277.237 187.981 277.221 187.752 276.823 187.697C274.75 187.423 270.675 187.918 271.221 187.248C271.543 186.854 273.071 186.121 275.053 184.542C276.576 183.33 276.842 182.991 275.99 181.907C273.574 178.812 273.648 178.916 272.658 179.494C271.121 180.574 269.652 181.75 268.258 183.015C268.216 183.045 268.165 183.056 268.115 183.047C268.065 183.038 268.02 183.01 267.99 182.969C267.85 182.774 268.122 179.685 268.054 178.106C268.019 177.285 268.033 177.037 267.27 176.859C265.913 176.746 264.55 176.746 263.193 176.859C262.431 177.037 262.446 177.285 262.414 178.106C262.366 179.283 262.508 181.234 262.519 182.854C262.518 182.89 262.507 182.926 262.487 182.958C262.468 182.989 262.44 183.014 262.408 183.03C262.375 183.047 262.339 183.054 262.303 183.052C262.266 183.049 262.232 183.036 262.202 183.015C260.804 181.753 259.333 180.577 257.798 179.494C256.686 178.845 256.852 178.985 254.464 181.907C253.591 182.974 253.879 183.33 255.402 184.542C257.386 186.121 258.697 186.854 259.017 187.248C259.148 187.409 258.941 187.565 258.73 187.571C256.917 187.475 255.1 187.513 253.293 187.686C252.901 187.782 252.783 188.08 252.756 188.567C252.766 189.693 252.851 190.816 253.011 191.93C253.011 192.644 253.707 192.641 254.051 192.669C255.79 192.791 257.538 192.716 259.261 192.447C259.557 192.384 259.6 192.657 259.479 192.761C259.358 192.865 259.159 192.986 258.974 193.139C257.7 194.163 256.544 195.33 255.525 196.617C255.297 197.528 255.933 198.02 257.564 199.484C259.39 201.126 259.049 200.612 262.642 196.319C262.655 196.3 262.674 196.287 262.695 196.28C262.716 196.273 262.739 196.274 262.76 196.282C262.781 196.29 262.798 196.306 262.809 196.325C262.821 196.344 262.826 196.367 262.823 196.39C262.715 197.856 262.642 200.395 262.653 201.654C262.653 202.691 263.263 202.448 264.337 202.541C265.223 202.614 266.114 202.585 266.993 202.453C267.56 202.33 267.761 202.39 267.745 201.487C267.721 200.251 267.77 198.204 267.662 196.357C267.661 196.338 267.666 196.319 267.676 196.302C267.686 196.286 267.7 196.273 267.718 196.266C267.735 196.258 267.754 196.256 267.773 196.26C267.791 196.265 267.808 196.274 267.821 196.289C271.54 200.521 271.269 201.255 273.101 199.608C274.731 198.144 275.368 197.651 275.139 196.735C274.062 195.406 272.846 194.2 271.513 193.139C271.325 192.986 271.121 192.865 271.006 192.761C270.89 192.657 270.925 192.422 271.223 192.447C272.985 192.598 274.756 192.635 276.522 192.556C276.837 192.551 277.312 192.721 277.411 192.014ZM241.541 192.014C241.698 190.833 241.676 189.633 241.476 188.457C241.369 187.981 241.353 187.752 240.955 187.697C238.879 187.423 234.805 187.918 235.35 187.248C235.673 186.854 237.201 186.121 239.185 184.542C240.706 183.33 240.974 182.991 240.12 181.907C237.703 178.812 237.781 178.916 236.79 179.494C235.253 180.573 233.784 181.749 232.391 183.015C232.349 183.044 232.297 183.055 232.248 183.046C232.197 183.037 232.153 183.01 232.122 182.969C231.982 182.771 232.257 179.685 232.189 178.106C232.152 177.285 232.165 177.037 231.405 176.859C230.047 176.746 228.683 176.746 227.325 176.859C226.568 177.037 226.581 177.285 226.546 178.106C226.501 179.283 226.643 181.234 226.651 182.854C226.651 182.891 226.64 182.927 226.621 182.959C226.602 182.991 226.574 183.017 226.541 183.033C226.509 183.05 226.472 183.057 226.435 183.054C226.399 183.051 226.364 183.037 226.334 183.015C224.936 181.756 223.467 180.58 221.935 179.494C220.923 178.905 220.998 178.842 218.599 181.907C217.748 183.001 218.019 183.33 219.54 184.542C221.519 186.118 222.829 186.854 223.149 187.248C223.281 187.409 223.074 187.565 222.88 187.571C221.067 187.475 219.25 187.513 217.442 187.686C217.05 187.782 216.934 188.08 216.905 188.567C216.918 189.692 217.004 190.816 217.16 191.93C217.16 192.644 217.858 192.641 218.199 192.669C219.94 192.791 221.688 192.716 223.412 192.447C223.705 192.384 223.748 192.657 223.63 192.761C223.512 192.865 223.308 192.986 223.122 193.139C221.85 194.163 220.694 195.33 219.676 196.617C219.443 197.528 220.085 198.02 221.712 199.484C223.541 201.126 223.302 200.699 226.791 196.319C226.805 196.302 226.824 196.289 226.845 196.284C226.866 196.278 226.888 196.279 226.909 196.287C226.929 196.295 226.946 196.309 226.959 196.327C226.971 196.346 226.977 196.368 226.976 196.39C226.878 198.143 226.823 199.898 226.81 201.654C226.81 202.691 227.411 202.448 228.491 202.541C229.375 202.613 230.264 202.584 231.142 202.453C231.714 202.33 231.91 202.39 231.894 201.487C231.872 200.251 231.87 198.204 231.813 196.357C231.812 196.337 231.816 196.317 231.826 196.3C231.836 196.283 231.851 196.27 231.869 196.262C231.887 196.255 231.907 196.253 231.926 196.257C231.945 196.262 231.962 196.273 231.974 196.289C235.592 200.612 235.418 201.255 237.252 199.608C238.879 198.144 239.524 197.648 239.293 196.735C238.215 195.405 236.997 194.199 235.662 193.139C235.474 192.986 235.275 192.865 235.154 192.761C235.034 192.657 235.074 192.422 235.377 192.447C237.138 192.597 238.906 192.634 240.671 192.556C240.969 192.551 241.442 192.721 241.533 192.014H241.541ZM205.671 192.014C205.826 190.833 205.805 189.633 205.609 188.457C205.499 187.981 205.483 187.752 205.085 187.697C203.012 187.423 198.937 187.918 199.482 187.248C199.802 186.854 201.336 186.118 203.315 184.542C204.835 183.33 205.104 182.991 204.252 181.907C201.835 178.818 201.916 178.916 200.92 179.494C199.386 180.578 197.917 181.754 196.52 183.015C196.491 183.037 196.456 183.051 196.419 183.054C196.383 183.057 196.346 183.05 196.313 183.033C196.28 183.017 196.253 182.991 196.233 182.959C196.214 182.927 196.204 182.891 196.203 182.854C196.203 181.234 196.356 179.296 196.308 178.106C196.276 177.285 196.287 177.037 195.529 176.859C194.171 176.746 192.806 176.746 191.447 176.859C190.69 177.037 190.701 177.285 190.668 178.106C190.62 179.283 190.762 181.234 190.77 182.854C190.771 182.891 190.761 182.927 190.742 182.959C190.723 182.992 190.695 183.017 190.662 183.034C190.63 183.051 190.593 183.058 190.557 183.055C190.52 183.051 190.485 183.038 190.456 183.015C189.057 181.756 187.589 180.58 186.057 179.494C185.05 178.908 185.141 178.826 182.724 181.907C181.872 183.001 182.138 183.33 183.661 184.542C185.641 186.118 186.954 186.849 187.276 187.248C187.402 187.407 187.193 187.565 186.986 187.571C185.173 187.474 183.355 187.512 181.548 187.686C181.161 187.782 181.042 188.08 180.997 188.567C181.014 189.693 181.104 190.816 181.266 191.93C181.266 192.644 181.961 192.641 182.305 192.669C184.044 192.791 185.792 192.716 187.515 192.447C187.808 192.384 187.853 192.657 187.738 192.761C187.623 192.865 187.413 192.986 187.23 193.139C185.956 194.164 184.799 195.33 183.779 196.617C183.548 197.528 184.188 198.02 185.821 199.484C187.652 201.126 187.308 200.612 190.902 196.319C190.915 196.3 190.933 196.287 190.954 196.28C190.976 196.273 190.998 196.274 191.019 196.282C191.04 196.29 191.057 196.306 191.069 196.325C191.08 196.344 191.085 196.367 191.082 196.39C190.982 198.143 190.925 199.898 190.912 201.654C190.912 202.691 191.517 202.448 192.594 202.541C193.472 202.616 194.356 202.591 195.229 202.467C195.798 202.344 195.994 202.404 195.978 201.501C195.956 200.264 195.954 198.218 195.897 196.371C195.896 196.351 195.901 196.331 195.912 196.315C195.922 196.298 195.937 196.285 195.956 196.278C195.973 196.27 195.993 196.269 196.012 196.273C196.031 196.277 196.048 196.288 196.061 196.302C199.676 200.625 199.502 201.269 201.336 199.621C202.966 198.158 203.61 197.662 203.377 196.748C202.299 195.42 201.083 194.215 199.751 193.153C199.566 193 199.359 192.879 199.246 192.775C199.133 192.671 199.163 192.436 199.464 192.461C201.224 192.612 202.991 192.649 204.755 192.57C205.099 192.551 205.574 192.721 205.662 192.014H205.671ZM169.808 192.014C169.976 190.833 169.952 189.631 169.736 188.457C169.644 187.979 169.612 187.752 169.22 187.697C167.142 187.409 163.064 187.918 163.612 187.248C163.932 186.854 165.465 186.118 167.445 184.542C168.965 183.33 169.26 182.974 168.387 181.907C165.994 178.979 166.161 178.848 165.049 179.494C163.517 180.58 162.048 181.756 160.65 183.015C160.622 183.043 160.586 183.061 160.548 183.068C160.509 183.075 160.47 183.07 160.434 183.054C160.398 183.039 160.368 183.012 160.347 182.979C160.325 182.946 160.314 182.907 160.314 182.867C160.314 181.247 160.467 179.31 160.419 178.12C160.384 177.299 160.397 177.05 159.64 176.872C158.283 176.76 156.92 176.76 155.563 176.872C154.8 177.05 154.814 177.299 154.779 178.12C154.725 179.296 154.873 181.247 154.881 182.867C154.88 182.904 154.87 182.94 154.851 182.972C154.831 183.003 154.804 183.028 154.772 183.045C154.739 183.062 154.704 183.069 154.667 183.066C154.631 183.063 154.596 183.05 154.567 183.029C153.173 181.764 151.704 180.587 150.168 179.507C149.16 178.922 149.252 178.839 146.835 181.92C145.983 183.015 146.249 183.343 147.772 184.555C149.754 186.134 151.065 186.868 151.387 187.262C151.516 187.423 151.309 187.579 151.097 187.584C149.284 187.487 147.466 187.526 145.658 187.7C145.271 187.795 145.151 188.094 145.121 188.581C145.131 189.706 145.216 190.83 145.374 191.944C145.374 192.657 146.069 192.655 146.419 192.682C148.158 192.804 149.905 192.73 151.629 192.461C151.921 192.397 151.962 192.671 151.846 192.775C151.731 192.879 151.527 193 151.339 193.153C150.064 194.177 148.907 195.343 147.887 196.631C147.654 197.542 148.301 198.034 149.929 199.498C151.758 201.14 151.417 200.625 155.01 196.332C155.023 196.314 155.041 196.3 155.063 196.293C155.084 196.287 155.107 196.288 155.128 196.296C155.148 196.304 155.166 196.319 155.177 196.339C155.188 196.358 155.193 196.381 155.19 196.404C154.894 203.367 154.672 202.377 156.702 202.555C157.587 202.626 158.477 202.597 159.356 202.467C159.925 202.344 160.121 202.404 160.105 201.501C160.084 200.264 160.081 198.218 160.024 196.371C160.023 196.351 160.029 196.331 160.039 196.315C160.049 196.298 160.064 196.285 160.083 196.278C160.1 196.27 160.12 196.269 160.139 196.273C160.158 196.277 160.175 196.288 160.188 196.302C163.803 200.625 163.628 201.269 165.463 199.621C167.096 198.155 167.738 197.662 167.504 196.748C166.426 195.42 165.21 194.215 163.878 193.153C163.693 193 163.486 192.879 163.373 192.775C163.261 192.671 163.29 192.436 163.591 192.461C165.35 192.611 167.118 192.647 168.882 192.57C169.234 192.551 169.714 192.721 169.8 192.014H169.808Z" fill="white"/>
<path d="M391.044 235.157C391.556 245.88 391.755 257.901 391.479 264.38C391.371 266.897 391.876 270.898 389.316 271.363C383.79 272.37 143.461 271.576 143.188 271.568C136.838 271.382 137.11 269.871 136.991 264.768C136.803 256.82 136.879 238.98 137.26 234.153C137.497 231.263 138.751 231.277 141.74 231.096C148.814 230.675 166.857 230.453 202.33 230.691C292.508 231.302 261.713 230.232 331.297 230.431C342.846 230.464 384.523 230.448 386.827 230.609C391.049 230.902 390.885 231.879 391.044 235.157ZM277.411 254.477C277.565 253.301 277.543 252.109 277.347 250.94C277.237 250.463 277.221 250.228 276.823 250.173C274.809 249.9 270.673 250.408 271.221 249.73C271.543 249.331 273.071 248.597 275.053 247.018C276.576 245.806 276.845 245.467 275.99 244.383C273.533 241.256 273.635 241.398 272.658 241.97C271.122 243.052 269.654 244.228 268.258 245.491C268.229 245.515 268.195 245.53 268.157 245.534C268.121 245.538 268.083 245.531 268.05 245.514C268.017 245.497 267.989 245.471 267.971 245.438C267.952 245.405 267.943 245.368 267.944 245.33C268.065 239.784 268.318 239.584 267.262 239.335C265.905 239.231 264.542 239.231 263.185 239.335C262.422 239.518 262.438 239.767 262.406 240.583C262.358 241.759 262.497 243.71 262.511 245.33C262.511 245.368 262.5 245.404 262.481 245.436C262.462 245.468 262.434 245.493 262.401 245.51C262.368 245.526 262.331 245.534 262.295 245.531C262.258 245.527 262.224 245.514 262.194 245.491C260.801 244.224 259.33 243.048 257.789 241.97C256.678 241.319 256.86 241.453 254.456 244.383C253.581 245.448 253.871 245.806 255.394 247.018C257.378 248.597 258.687 249.331 259.009 249.73C259.137 249.891 258.934 250.047 258.721 250.053C256.909 249.955 255.093 249.992 253.286 250.163C252.893 250.258 252.775 250.562 252.748 251.052C252.76 252.176 252.844 253.299 253.003 254.412C253.003 255.123 253.699 255.118 254.043 255.145C255.782 255.265 257.529 255.192 259.253 254.929C259.549 254.86 259.591 255.134 259.471 255.238C259.35 255.342 259.151 255.463 258.966 255.616C257.685 256.636 256.522 257.8 255.498 259.085C255.27 260.002 255.907 260.495 257.537 261.958C259.363 263.6 258.934 263.001 262.616 258.787C262.629 258.77 262.648 258.759 262.669 258.753C262.689 258.748 262.711 258.75 262.731 258.757C262.75 258.765 262.767 258.779 262.779 258.797C262.791 258.815 262.796 258.837 262.795 258.858C262.688 260.325 262.616 262.864 262.627 264.128C262.627 265.16 263.236 264.916 264.31 265.009C265.196 265.083 266.087 265.054 266.966 264.922C267.533 264.798 267.735 264.864 267.718 263.956C267.694 262.724 267.743 260.673 267.635 258.825C267.634 258.806 267.638 258.787 267.648 258.77C267.658 258.753 267.674 258.74 267.691 258.734C267.709 258.726 267.729 258.725 267.747 258.731C267.766 258.736 267.782 258.747 267.794 258.762C271.414 263.08 271.242 263.723 273.074 262.076C274.704 260.612 275.34 260.12 275.112 259.203C274.035 257.874 272.819 256.669 271.487 255.607C271.298 255.454 271.095 255.334 270.979 255.23C270.863 255.126 270.899 254.893 271.197 254.921C272.959 255.07 274.729 255.105 276.496 255.025C276.837 255.016 277.312 255.189 277.411 254.477ZM241.541 254.477C241.697 253.302 241.675 252.108 241.476 250.94C241.369 250.463 241.353 250.228 240.955 250.173C238.938 249.9 234.802 250.408 235.35 249.73C235.673 249.331 237.201 248.597 239.185 247.018C240.706 245.806 240.974 245.467 240.12 244.383C237.663 241.256 237.765 241.398 236.79 241.97C235.253 243.05 233.784 244.226 232.391 245.491C232.362 245.515 232.326 245.529 232.289 245.533C232.252 245.537 232.215 245.53 232.182 245.513C232.149 245.496 232.121 245.47 232.102 245.438C232.083 245.405 232.073 245.368 232.074 245.33C232.197 239.715 232.436 239.584 231.394 239.335C230.036 239.231 228.672 239.231 227.314 239.335C226.557 239.518 226.571 239.767 226.536 240.583C226.487 241.759 226.63 243.71 226.64 245.33C226.641 245.368 226.631 245.405 226.612 245.438C226.593 245.47 226.566 245.496 226.532 245.513C226.499 245.53 226.462 245.537 226.425 245.533C226.388 245.529 226.353 245.515 226.324 245.491C224.93 244.227 223.461 243.05 221.924 241.97C220.923 241.385 221.014 241.292 218.589 244.383C217.737 245.464 218.009 245.806 219.529 247.018C221.508 248.594 222.816 249.331 223.138 249.73C223.27 249.891 223.063 250.047 222.87 250.053C221.057 249.955 219.239 249.992 217.431 250.163C217.039 250.258 216.924 250.562 216.894 251.052C216.908 252.176 216.993 253.299 217.149 254.412C217.149 255.123 217.848 255.118 218.189 255.145C219.929 255.265 221.677 255.192 223.402 254.929C223.694 254.86 223.737 255.134 223.619 255.238C223.501 255.342 223.297 255.463 223.112 255.616C221.827 256.635 220.659 257.799 219.631 259.085C219.397 260.002 220.039 260.495 221.666 261.958C223.496 263.6 223.066 263.001 226.745 258.787C226.759 258.77 226.778 258.758 226.799 258.752C226.82 258.746 226.842 258.748 226.863 258.755C226.883 258.763 226.901 258.777 226.913 258.796C226.925 258.814 226.931 258.836 226.93 258.858C226.833 260.613 226.777 262.371 226.764 264.128C226.764 265.16 227.366 264.916 228.445 265.009C229.329 265.083 230.219 265.054 231.096 264.922C231.668 264.798 231.864 264.864 231.848 263.956C231.827 262.724 231.87 260.673 231.768 258.825C231.767 258.806 231.772 258.787 231.783 258.771C231.793 258.755 231.808 258.742 231.826 258.735C231.844 258.729 231.864 258.727 231.882 258.732C231.9 258.737 231.916 258.748 231.929 258.762C235.546 263.08 235.372 263.723 237.206 262.076C238.834 260.612 239.478 260.117 239.247 259.203C238.169 257.873 236.952 256.667 235.616 255.607C235.428 255.454 235.23 255.334 235.108 255.23C234.988 255.126 235.028 254.893 235.332 254.921C237.092 255.07 238.86 255.105 240.625 255.025C240.969 255.016 241.442 255.189 241.533 254.477H241.541ZM205.671 254.477C205.825 253.302 205.804 252.109 205.609 250.94C205.499 250.463 205.483 250.228 205.085 250.173C203.071 249.9 198.935 250.408 199.482 249.73C199.805 249.331 201.336 248.597 203.315 247.018C204.835 245.806 205.104 245.467 204.252 244.383C201.814 241.281 201.91 241.393 200.92 241.97C199.383 243.05 197.914 244.226 196.52 245.491C196.491 245.515 196.456 245.529 196.419 245.533C196.382 245.537 196.345 245.53 196.312 245.513C196.279 245.496 196.251 245.47 196.232 245.438C196.212 245.405 196.203 245.368 196.203 245.33C196.241 239.885 196.673 239.611 195.529 239.335C194.17 239.231 192.806 239.231 191.447 239.335C190.69 239.518 190.701 239.767 190.668 240.583C190.62 241.759 190.759 243.71 190.77 245.33C190.772 245.368 190.763 245.405 190.744 245.438C190.725 245.471 190.697 245.497 190.664 245.514C190.631 245.531 190.594 245.538 190.557 245.534C190.52 245.53 190.485 245.515 190.456 245.491C189.062 244.227 187.593 243.051 186.057 241.97C185.52 241.655 185.251 241.453 184.749 241.948C184.035 242.725 183.376 243.552 182.724 244.383C181.87 245.478 182.138 245.806 183.661 247.018C185.641 248.594 186.954 249.328 187.276 249.73C187.402 249.889 187.193 250.047 186.986 250.053C185.173 249.954 183.355 249.99 181.548 250.163C181.161 250.258 181.042 250.562 180.997 251.052C181.014 252.176 181.104 253.299 181.266 254.412C181.266 255.123 181.961 255.118 182.305 255.145C184.044 255.265 185.791 255.192 187.515 254.929C187.808 254.86 187.853 255.134 187.738 255.238C187.623 255.342 187.413 255.463 187.23 255.616C185.95 256.637 184.786 257.8 183.76 259.085C183.527 260.002 184.169 260.495 185.801 261.958C187.633 263.6 187.298 263.086 190.883 258.787C190.897 258.77 190.915 258.759 190.936 258.753C190.956 258.748 190.978 258.75 190.998 258.757C191.018 258.765 191.034 258.779 191.046 258.797C191.058 258.815 191.064 258.837 191.063 258.858C190.963 260.613 190.907 262.371 190.894 264.128C190.894 265.16 191.498 264.916 192.575 265.009C193.46 265.086 194.35 265.059 195.229 264.93C195.798 264.807 195.994 264.872 195.978 263.964C195.956 262.733 196 260.68 195.897 258.834C195.897 258.814 195.904 258.796 195.914 258.78C195.925 258.764 195.94 258.752 195.958 258.745C195.976 258.738 195.995 258.737 196.013 258.742C196.032 258.746 196.049 258.756 196.061 258.77C199.676 263.088 199.502 263.731 201.336 262.084C202.966 260.621 203.61 260.125 203.377 259.211C202.299 257.883 201.083 256.678 199.751 255.616C199.566 255.463 199.359 255.342 199.246 255.238C199.133 255.134 199.163 254.902 199.464 254.929C201.224 255.079 202.991 255.113 204.755 255.033C205.099 255.016 205.571 255.189 205.662 254.477H205.671ZM169.808 254.477C169.975 253.302 169.951 252.107 169.736 250.94C169.644 250.46 169.612 250.228 169.22 250.173C167.216 249.9 163.062 250.408 163.612 249.73C163.935 249.331 165.465 248.597 167.445 247.018C168.965 245.806 169.263 245.448 168.387 244.383C166.011 241.489 166.175 241.314 165.049 241.97C163.513 243.05 162.043 244.227 160.65 245.491C160.622 245.522 160.584 245.542 160.544 245.549C160.504 245.557 160.462 245.551 160.426 245.533C160.388 245.516 160.358 245.487 160.338 245.45C160.318 245.414 160.31 245.372 160.314 245.33C160.352 239.885 160.784 239.611 159.64 239.335C158.283 239.231 156.92 239.231 155.563 239.335C154.516 239.587 154.757 239.705 154.881 245.33C154.882 245.368 154.873 245.405 154.855 245.438C154.836 245.471 154.808 245.497 154.775 245.514C154.742 245.531 154.704 245.538 154.668 245.534C154.631 245.53 154.596 245.515 154.567 245.491C153.172 244.227 151.703 243.051 150.168 241.97C149.631 241.655 149.362 241.453 148.86 241.948C148.145 242.725 147.487 243.552 146.835 244.383C145.981 245.478 146.249 245.806 147.772 247.018C149.754 248.597 151.065 249.331 151.387 249.73C151.516 249.891 151.309 250.047 151.097 250.053C149.284 249.954 147.466 249.99 145.658 250.163C145.271 250.258 145.151 250.562 145.121 251.052C145.131 252.176 145.216 253.299 145.374 254.412C145.374 255.123 146.069 255.118 146.419 255.145C148.158 255.263 149.905 255.191 151.629 254.929C151.921 254.86 151.962 255.134 151.846 255.238C151.731 255.342 151.527 255.463 151.339 255.616C150.065 256.637 148.909 257.801 147.89 259.085C147.656 260.002 148.304 260.495 149.931 261.958C151.76 263.6 151.395 263.053 155.013 258.787C155.026 258.77 155.045 258.759 155.066 258.753C155.086 258.748 155.108 258.75 155.128 258.757C155.148 258.765 155.164 258.779 155.176 258.797C155.188 258.815 155.193 258.837 155.192 258.858C155.123 260.328 155.007 262.864 155.024 264.128C155.024 265.16 155.628 264.916 156.704 265.009C157.59 265.083 158.48 265.054 159.358 264.922C159.928 264.798 160.124 264.864 160.107 263.956C160.086 262.724 160.129 260.673 160.027 258.825C160.027 258.806 160.033 258.787 160.044 258.771C160.055 258.756 160.07 258.744 160.088 258.737C160.105 258.73 160.125 258.729 160.143 258.734C160.161 258.738 160.178 258.748 160.191 258.762C163.806 263.088 163.631 263.737 165.465 262.095C167.099 260.628 167.74 260.136 167.506 259.222C166.428 257.894 165.213 256.689 163.881 255.627C163.696 255.474 163.489 255.353 163.376 255.249C163.263 255.145 163.293 254.912 163.594 254.94C165.353 255.089 167.121 255.124 168.884 255.044C169.234 255.016 169.714 255.189 169.8 254.477H169.808Z" fill="white"/>
<path d="M369.973 413.83C370.291 414.744 371.953 419.702 365.569 415.181C363.689 413.846 361.96 412.957 360.311 411.731C350.534 404.472 343.345 398.211 336.676 399.106C331.686 399.777 325.297 404.349 331.812 413.102C283.644 413.102 227.999 413.329 213.01 413.219C223.753 400.455 220.339 403.722 227.653 390.391C228.969 387.991 230.607 385.783 231.974 383.397C235.734 376.795 229.621 373.172 225.528 373.684C217.138 374.734 212.999 385.324 203.623 391.89C202.127 392.939 190.563 399.218 189.604 397.831C195.73 388.667 192.854 391.174 208.753 374.157C212.661 370.285 217.62 367.698 222.987 366.728C228.694 365.387 239.018 377.216 245.899 373.153C247.282 372.332 251.617 371.284 250.118 366.723C249.138 363.737 290.136 368.266 311.954 366.449C316.624 366.058 309.395 369.15 304.528 372.13C299.579 375.159 300.312 380.631 304.931 383.66C310.327 387.201 317.89 385.077 325.391 382.429C328.469 381.334 329.419 381.416 339.875 383.189C341.736 383.506 341.564 383.786 354.171 394.022C360.622 399.245 366.224 402.992 369.973 413.83Z" fill="white"/>
<path d="M372.574 348.344C364.157 343.63 360.904 348.55 358.339 345.477C356.953 343.816 355.616 342.114 354.273 340.44C362.959 339.641 368.846 341.769 372.574 348.344Z" fill="white"/>
<path d="M225.09 327.815C235.228 327.35 343.5 327.372 352.975 327.372C350.05 330.822 351.901 332.811 353.909 336.888C347.636 337.26 348.089 337.605 344.953 336.035C333.982 330.543 326.005 336.035 322.052 335.315C319.978 334.943 318.335 334.866 299 335.104C291.905 335.192 291.378 336.002 291.131 334.393C290.997 333.501 290.562 332.658 290.382 331.763C290.175 330.732 289.407 330.081 288.639 330.277C288.166 330.398 287.452 332.141 287.505 332.636C288 337.052 289.958 335.441 271.423 335.441C271.749 332.341 272.124 331.531 270.65 331.104C268.77 330.557 268.738 332.841 268.179 335.548H261.296C259.711 332.363 256.636 331.911 253.507 331.616C248.26 331.248 243.038 330.564 237.871 329.566C234.205 329.227 234.917 329.922 225.452 329.213C225.344 328.825 225.248 328.431 225.09 327.815Z" fill="white"/>
<path d="M355.78 433.707C280.341 433.707 250.253 434.459 210.067 433.414C187.819 432.837 162.377 433.852 162.293 432.976C188.799 428.156 191.031 427.605 201.529 421.244C212.111 414.835 198.575 417.594 235.388 417.394C276.785 417.172 315.076 417.216 321.693 417.306C337.018 417.511 337.496 416.953 338.908 418.305C341.296 420.535 343.561 422.897 345.693 425.381C347.975 428.12 353.145 430.681 355.78 433.707Z" fill="white"/>
<path d="M292.096 338.58C339.019 338.58 308.235 337.188 308.071 347.695C308.028 350.617 311.442 350.023 294.106 349.336C293.5 346.062 292.831 342.477 292.096 338.58Z" fill="white"/>
<path d="M288.795 338.846C289.48 342.42 290.138 345.892 290.861 349.586C283.765 350.456 276.895 348.981 269.598 349.263C270.017 345.876 270.369 342.735 270.838 339.618C271.113 337.798 273.32 339.768 288.795 338.846Z" fill="white"/>
<path d="M267.798 129.604C268.155 130.745 268.026 131.415 266.758 131.462C265.899 131.492 259.163 131.462 258.285 131.462C256.619 131.462 256.499 130.857 256.891 129.599C257.412 127.935 258.414 123.94 259.259 121.516C259.292 121.419 259.29 121.315 259.253 121.22C259.216 121.126 259.146 121.048 259.058 121.001C258.185 120.425 257.532 119.563 257.206 118.557C256.879 117.551 256.9 116.462 257.264 115.469C257.628 114.477 258.314 113.641 259.207 113.1C260.101 112.558 261.149 112.343 262.179 112.492C265.67 112.442 267.282 113.843 267.671 116.869C267.791 117.69 267.66 118.528 267.294 119.269C266.929 120.01 266.348 120.618 265.63 121.009C265.541 121.055 265.471 121.133 265.434 121.228C265.397 121.323 265.395 121.428 265.429 121.524C266.288 123.937 267.276 127.938 267.798 129.604Z" fill="white"/>
<path d="M341.563 358.686C335.034 352.376 334.672 352.338 333.869 352.51C326.966 354.001 323.513 356.204 316.949 354.784C309.589 353.367 302.09 352.842 294.609 353.221C294.873 355.346 295.256 357.454 295.758 359.534C296.244 362.352 292.925 363.222 292.431 360.327C291.262 353.487 291.625 353.227 289.6 353.213C280.898 353.164 284.543 352.808 268.976 352.808C268.536 359.775 268.813 360.908 267.043 360.908C264.266 360.908 265.359 356.114 265.861 353.057C249.446 351.689 254.541 353.268 251.382 351.341C252.371 350.266 252.647 349.527 254.17 349.569C257.518 349.25 260.89 349.299 264.228 349.713C267.217 350.441 266.667 348.507 267.494 338.818C261.397 337.97 261.682 337.819 260.524 340.81C256.66 350.814 242.662 347.733 230.493 347.733C230.955 348.425 241.73 357.662 246.314 361.515C247.641 362.634 251.954 361.575 266.994 362.204C279.139 362.719 274.069 363.4 318.735 362.992C321.77 361.582 325.067 360.855 328.403 360.861C333.282 360.366 338.199 360.391 343.073 360.935C342.644 360.136 342.138 359.382 341.563 358.686Z" fill="white"/>
<path d="M266.859 107.927C266.894 108.704 265.487 108.523 264.835 108.537H259.852C259.2 108.523 257.792 108.704 257.828 107.927C257.964 104.887 258.365 102.088 261.354 101.453C262.006 101.316 262.679 101.316 263.331 101.453C266.309 102.088 266.722 104.892 266.859 107.927Z" fill="#D8E9FF"/>
<path d="M256.171 336.208C258.758 336.698 256.821 341.467 253.322 342.682C241.011 346.953 233.179 336.662 193.248 355.052C183.421 359.578 187.702 363.86 189.706 362.473C190.898 361.654 192.014 360.726 193.041 359.701C195.92 356.806 217.819 350.734 217.876 350.729C224.733 350.045 228.501 349.867 233.147 355.042C239.364 361.964 248.633 366.608 245.517 368.769C239.203 373.147 228.906 360.59 220.54 363.067C210.767 365.956 203.317 373.153 201.853 376.592C201.603 377.18 177.641 400.258 189.107 402.014C192.061 402.463 192.483 401.506 201.582 397.713C206.204 395.798 209.389 392.468 219.783 381.14C222.125 378.587 227.587 375.916 229.223 379.26C230.158 381.175 228.197 380.973 218.835 399.158C214.242 408.081 211.583 407.071 204.114 414.289C201.64 416.187 199.019 417.877 196.278 419.343C190.423 423.447 183.469 424.09 161.678 429.809C154.308 431.744 150.666 434.447 140.461 433.426C139.142 433.295 139.486 433.404 130.792 424.43C129.911 423.518 128.093 423.751 129.18 419.742C130.319 415.597 122.842 409.602 119.587 406.655C112.677 400.4 110.893 400.849 112.303 399.38C115.367 395.884 118.602 392.55 121.999 389.39C125.791 386.825 128.939 383.389 131.189 379.358C141.567 362.804 137.635 365.951 148.378 355.458C153.464 350.491 155.111 351.156 158.428 345.349C165.104 333.661 172.799 330.82 177.496 327.222C181.004 324.535 181.439 325.263 192.404 326.185C187.909 333.573 181.903 329.994 169.205 344.08C166.966 346.564 170.334 348.384 172.16 346.71C179.647 339.784 180.982 337.68 188.521 334.777C193.288 332.933 194.177 328.276 199.737 326.905C207.64 324.959 215.383 321.293 221.018 329.381C216.125 330.041 213.952 329.873 209.993 332.186C194.491 341.248 187.6 339.661 179.306 351.263C178.232 352.765 179.889 355.624 181.807 353.583C183.456 351.824 184.267 348.204 193.954 344.091C213.882 335.631 211.71 333.538 224.319 333.447C232.376 333.387 239.705 333.354 242.993 334.604C247.196 336.21 250.822 335.198 256.171 336.208Z" fill="#FFCEB6"/>
<path d="M169.376 327.952C152.931 340.125 168.917 334.473 148.653 335.501C146.84 335.592 145.022 335.518 142.935 335.518C143.421 334.319 143.768 333.329 144.216 332.409C144.979 330.839 142.911 329.4 142.001 330.875C138.066 337.222 144.026 334.88 120.015 334.88C121.85 331.662 122.57 331.153 121.119 329.936C119.98 328.981 118.954 330.595 117.445 333.299C116.779 334.489 117.015 334.421 107.53 334.213C105.22 334.163 102.749 332.888 101.269 334.596C99.2738 336.897 102.521 336.675 114.563 337.901C113.857 339.34 109.804 348.066 108.118 348.137C100.866 348.438 99.7169 346.222 96.999 347.765C96.7963 347.91 96.6308 348.102 96.5172 348.327C96.4037 348.55 96.345 348.799 96.3465 349.051C96.5316 350.189 97.321 350.105 106.872 351.76C103.861 356.978 102.131 358.932 104.186 360.04C105.316 360.647 105.886 359.725 106.359 358.975C110.156 352.956 108.988 351.516 114.314 351.566C129.222 351.697 124.767 351.593 131.787 352.387C130.865 354.327 130.226 356.393 129.891 358.521C129.775 358.898 129.807 359.305 129.979 359.659C130.151 360.012 130.45 360.284 130.814 360.418C131.178 360.553 131.579 360.539 131.933 360.38C132.288 360.22 132.568 359.928 132.716 359.564C136.498 351.448 131.583 352.28 145.339 352.28C133.487 365.348 140.695 362.697 127.82 362.642C100.63 362.527 86.7823 362.8 81.0379 362.382C75.0431 361.944 77.8149 360.74 81.2178 355.815C101.578 326.264 101.173 327.339 103.552 327.32C161.77 326.896 142.707 327.952 169.376 327.952Z" fill="white"/>
<path d="M141.565 339.396C141.933 338.632 142.204 338.788 158.103 338.788C150.245 350.442 154.612 348.456 137.372 348.456C138.702 345.547 140.104 342.458 141.565 339.396Z" fill="white"/>
<path d="M137.829 437.506C138.705 438.874 140.639 441.307 138.533 443.132C134.847 446.428 130.96 449.483 126.896 452.279C126.09 451.184 125.344 450.126 124.549 449.023C128.959 445.2 133.358 441.389 137.829 437.506Z" fill="#DDDDDD"/>
<path d="M134.759 433.949C135.028 434.797 134.491 435.246 134.026 435.807C133.489 436.433 125.701 443.282 122.394 446.506C121.5 445.353 120.546 444.25 119.536 443.2C123.734 439.183 129.605 434.108 132.119 431.109C133.035 432.023 134.875 433.487 134.759 433.949Z" fill="#DDDDDD"/>
<path d="M138.584 338.486C133.846 348.583 134.41 349.431 130.723 348.665C127.768 348.06 127.102 348.355 112.89 348.355C117.742 338.519 117.356 338.051 119.631 338.149C124.68 338.368 121.615 337.887 138.584 338.486Z" fill="white"/>
<path d="M126.628 426.13L129.687 428.711C125.457 432.843 121.335 436.865 117.153 440.953L113.844 438.124C121.81 430.919 118.415 434.117 126.628 426.13Z" fill="#DDDDDD"/>
<path d="M119.548 415.14C119.567 416.377 119.146 417.579 118.362 418.524C117.579 419.469 116.486 420.093 115.286 420.282C114.017 420.274 112.796 419.784 111.862 418.909C110.928 418.032 110.347 416.833 110.235 415.545C110.345 414.239 110.873 413.005 111.737 412.034C112.601 411.062 113.755 410.406 115.02 410.166C116.229 410.318 117.347 410.901 118.176 411.811C119.004 412.721 119.491 413.9 119.548 415.14Z" fill="#B8D7FF"/>
<path d="M114.862 428.748C114.716 430.301 114.037 431.752 112.945 432.845C111.852 433.937 110.415 434.602 108.889 434.721C107.611 434.531 106.451 433.854 105.643 432.827C104.835 431.799 104.441 430.498 104.538 429.186C104.594 427.782 105.158 426.45 106.121 425.445C107.084 424.44 108.378 423.834 109.754 423.743C111.065 423.775 112.317 424.308 113.263 425.234C114.208 426.16 114.779 427.414 114.862 428.748Z" fill="#D3FFB0"/>
<path d="M103.238 402.083C104.131 402.306 104.93 402.817 105.516 403.54C106.101 404.263 106.442 405.159 106.488 406.095C106.527 406.68 106.442 407.267 106.24 407.817C106.037 408.366 105.721 408.865 105.313 409.279C104.906 409.693 104.416 410.014 103.876 410.219C103.336 410.424 102.76 410.509 102.185 410.467C101.611 410.426 101.052 410.26 100.545 409.979C100.039 409.7 99.5981 409.312 99.2514 408.844C98.9046 408.375 98.6608 407.836 98.5359 407.263C98.4109 406.69 98.408 406.097 98.5273 405.523C98.7763 404.469 99.3892 403.541 100.254 402.91C101.119 402.278 102.178 401.985 103.238 402.083Z" fill="#FFF59E"/>
<path d="M89.1587 410.63C89.9023 410.286 90.7156 410.127 91.5317 410.167C92.3474 410.208 93.142 410.446 93.8489 410.863C94.5558 411.28 95.1545 411.863 95.5957 412.564C96.0364 413.264 96.3064 414.062 96.3832 414.891C96.1552 418.669 94.439 420.675 91.1353 420.954C86.0382 421.381 83.8574 414.007 89.1587 410.63Z" fill="#FF9C9F"/>
<path d="M79.3866 418.573C79.6871 419.723 79.3327 420.365 78.3415 421.153C65.7647 431.151 64.9133 433.103 62.6008 433.146C50.8291 433.363 42.8366 433.201 33.2325 432.93C27.9793 432.779 28.7232 429.401 26.9426 415.229C40.68 416.814 72.444 416.088 72.5003 416.094C80.3883 416.431 78.8815 416.636 79.3866 418.573Z" fill="white"/>
<path d="M501.489 436.274C524.767 447.618 526.393 448.426 525.353 450.776C525.225 451.055 525.043 451.305 524.819 451.513C524.6 451.72 524.337 451.881 524.051 451.984C523.765 452.088 523.464 452.133 523.164 452.118C522.863 452.102 522.568 452.026 522.291 451.892C522.291 451.892 470.148 425.6 467.457 424.081C450.708 414.644 456.429 417.367 450.649 412.622C442.356 405.817 447.676 410.545 439.716 405.327C433.27 401.094 430.643 393.663 419.428 378.165C411.589 367.326 408.726 366.692 401.788 359.115C397.362 354.59 393.352 349.66 389.81 344.388C386.751 339.833 388.838 339.715 380.375 333.553C377.551 331.517 374.271 330.236 370.835 329.826C360.348 328.535 360.514 329.648 356.477 330.508C354.563 330.915 357.251 334.338 359.325 335.307C372.842 341.655 366.377 331.75 388.008 361.484C389.397 363.4 386.534 364.768 385.134 363.84C378.957 359.722 375.055 352.48 364.323 350.159L364.11 350.463C369.718 357.747 370.454 359.043 372.855 361.936C374.979 364.492 378.495 366.796 378.473 368.169C378.422 371.877 372.565 367.551 369.737 363.982C357.383 348.386 362.386 354.701 355.624 348.356C353.801 346.107 351.723 344.086 349.433 342.336C337.594 336.768 337.323 337.925 332.766 337.92C326.255 337.92 315.169 345.103 313.383 346.572C310.085 349.286 317.489 351.084 320.634 351.06C327.805 351.005 333.625 345.081 339.166 350.701C341.282 352.846 343.651 354.737 345.746 356.907C356.899 368.454 346.994 361.203 364.962 371.784C366.13 372.473 366.404 374.52 366.007 374.794C364.277 376.069 363.772 374.698 353.244 369.657C349.728 367.975 341.964 364.254 339.775 364.322C326.956 364.708 323.167 364.544 317.865 368.782C308.565 376.214 302.533 375.521 306.709 379.626C312.513 385.328 323.193 376.389 329.87 377.71C338.108 379.335 339.507 377.568 345.966 382.471C363.458 395.756 372.637 401.122 375.055 418.904C375.04 419.41 374.908 419.904 374.669 420.347C374.431 420.79 374.093 421.17 373.683 421.454C373.273 421.739 372.802 421.92 372.31 421.984C371.818 422.048 371.319 421.992 370.852 421.821C354.369 415.194 354.154 408.775 341.309 403.727C336.823 401.964 331.337 404.211 333.284 408.454C336.023 414.423 339.923 411.711 347.518 421.495C349.89 424.546 350.067 423.712 361.392 433.262C363.635 435.318 366.247 436.914 369.084 437.959C372.879 439.213 376.554 440.865 380.364 442.045C380.657 442.135 410.538 448.532 424.308 456.249C436.603 463.138 452.433 475.911 465.775 486.835C470.951 491.077 483.893 501.064 484.928 501.953C487.661 504.641 484.289 507.989 479.944 504.441C444.467 475.437 440.011 470.239 425.68 461.702C411.634 453.343 378.753 446.119 371.614 443.429C353.636 436.657 367.854 437.106 347.953 437.374C339.12 437.491 273.18 437.647 235.153 437.573C158.197 437.415 148.223 433.956 143.571 442.436C141.382 445.869 138.513 448.798 135.148 451.036C130.924 454.793 128.936 455.999 124.873 456.61C124.177 455.422 91.6562 489.065 74.1397 505.214C71.5105 507.634 68.4487 503.907 71.739 501.127C76.0868 497.458 82.4818 491.553 92.3731 481.928C129.806 445.457 95.2871 479.258 122.547 452.834C119.313 448.514 115.667 444.53 111.665 440.939C109.9 439.259 107.494 443.549 100.954 439.347C94.2148 434.903 88.0111 429.668 82.4708 423.75C81.7486 423.274 19.2466 473.161 19.1902 473.2C17.0927 474.732 15.0649 472.163 16.996 470.11C23.4417 463.27 59.2742 437.741 58.8445 436.649C52.1733 435.661 34.9848 436.944 29.1971 435.535C25.4372 434.618 25.182 429.849 24.2662 423.43C21.5805 404.654 21.3522 413.123 81.5416 329.7C13.2575 329.7 17.2216 329.651 16.6039 328.297C15.3013 325.445 23.1275 326.247 63.6898 326.061C90.0688 325.941 80.7465 329.243 91.382 316.356C94.159 312.987 96.8316 313.808 94.4142 312.572C81.8989 306.177 87.8718 293.007 86.4751 148.906C86.4322 144.55 87.297 66.6029 87.2274 64.4963C86.4375 40.6389 115.304 48.3113 184.152 48.0787C184.246 48.0787 405.905 47.7011 419.439 48.6888C433.259 49.6957 433.557 52.2461 434.747 60.0089C436.238 69.7413 434.707 200.796 435.781 257.229C435.867 261.76 435.636 269.298 435.647 273.829C435.69 293.489 437.258 303.307 430.327 310.639C430.714 311.343 434.087 310.949 438.607 316.036C447.099 325.574 442.036 321.106 446.889 325.91C514.483 325.91 520.593 323.448 520.211 327.103C519.978 329.383 522.897 329.41 448.949 329.41C452.419 334.574 466.968 352.395 483.784 378.769C499.629 403.623 502.587 407.801 500.974 422.275C499.381 437.306 499.095 435.106 501.489 436.274ZM492.851 414.384C493.505 414.362 494.144 414.192 494.726 413.887C495.308 413.58 495.813 413.146 496.209 412.615C496.605 412.084 496.877 411.47 497.01 410.818C497.144 410.165 497.134 409.491 496.977 408.843C490.566 390.954 459.295 348.86 447.73 333.509C430.743 310.957 436.181 315.037 409.394 315.313C404.646 315.363 158.681 314.443 158.681 314.443C96.6703 315.932 97.922 313.264 92.956 319.615C91.8279 321.057 33.736 399.948 31.3565 403.576C28.0289 408.646 26.5867 411.205 29.4765 412.332C32.6993 413.604 67.1007 412.441 67.1541 412.441C79.4576 412.63 79.4037 414.239 81.7939 411.5C86.1265 406.498 91.0204 402.031 96.3746 398.191C99.6272 395.882 102.96 394.5 106.849 396.823C108.27 397.671 110.365 395.282 110.426 395.227C127.655 379.546 120.979 387.583 134.993 365.534C133.609 365.534 95.0777 366.108 77.5182 365.433C76.8256 365.331 76.1707 365.047 75.6183 364.608C75.066 364.17 74.6357 363.593 74.3691 362.933C74.1025 362.273 74.0095 361.554 74.0987 360.847C74.1879 360.139 74.4569 359.468 74.8785 358.899C84.1441 344.804 88.5916 339.266 89.9047 337.526C102.281 321.125 97.5833 324.009 114.895 323.762C116.824 323.735 118.774 324.14 120.683 323.984C125.913 323.424 131.173 323.22 136.429 323.374C186.687 326.154 171.881 323.426 180.443 321.579C183.335 320.956 193.168 321.445 195.118 323.67C195.923 324.594 206.519 319.628 211.554 320.08C214.903 320.031 218.176 321.094 220.879 323.109C222.576 324.619 421.649 323.443 424.662 325.344C432.016 329.996 446.038 350.632 450.998 357.905C451.392 358.578 451.602 359.347 451.605 360.13C451.608 360.913 451.405 361.683 451.016 362.36C450.628 363.036 450.068 363.593 449.396 363.974C448.724 364.355 447.964 364.545 447.195 364.524C413.144 367.34 411.725 363.703 414.916 366.987C420.333 372.572 424.187 376.528 436.356 395.759C441.11 403.269 444.456 402.441 448.595 405.562C463.205 416.598 448.095 414.442 492.851 414.373V414.384ZM496.123 433.633L497.86 417.315C493.066 418.891 492.345 418.409 466.073 418.409C465.829 418.735 462.55 416.962 496.123 433.623V433.633ZM435.365 361.523C456.314 360.647 447.451 362.494 433.657 339.999C431.742 336.878 429.043 334.267 426.84 331.312C423.285 326.543 424.361 327.328 378.697 327.328C379.422 328.332 377.644 327.008 389.171 335.211C389.708 335.6 389.066 335.523 402.194 335.523C400.821 333.299 399.269 331.523 400.851 330.535C402.567 329.476 403.282 331.788 405.371 334.245C406.069 335.066 406.128 334.853 419.272 334.995C420.392 334.995 421.279 335.449 421.243 336.727C421.163 339.51 415.04 337.821 408.016 337.821C413.522 346.282 413.388 347.199 415.805 346.482C419.093 345.899 422.445 345.786 425.764 346.148C428.052 346.118 431.994 345.874 431.541 348.135C431.046 350.597 426.601 348.816 415.964 349.637C419.186 354.356 422.081 357.194 419.949 358.617C418.15 359.818 417.459 357.769 413.127 351.295C412.139 349.817 412.19 350.2 401.546 351.141C399.973 351.278 400.126 351.415 399.903 351.807C410.447 362.316 409.969 362.018 410.645 362.018C423.242 362.013 423.655 361.999 435.365 361.512V361.523ZM432.126 297.87C432.996 292.356 432.445 273.446 432.376 268.83C432.016 244.822 432.4 84.9549 431.057 61.0401C430.595 52.7879 426.411 51.7373 406.924 51.3893C384.632 50.9845 210.837 51.5045 172.982 51.4335C139.411 51.3704 109.502 49.9557 100.704 52.3826C88.0411 55.8743 90.6436 63.7192 90.2677 72.3845C89.4807 90.4439 91.0733 195.576 90.0259 283.368C89.6257 316.749 93.1788 311.852 138.871 311.526C146.579 311.469 405.929 311.619 422.116 310.911C429.244 310.588 431.065 304.56 432.126 297.859V297.87ZM410.009 347.248C409.851 346.484 410.608 347.535 404.735 339.001C404.337 338.424 404.772 338.541 391.644 338.541C391.993 339.504 390.992 337.655 396.632 346.982C397.639 348.635 397.66 348.186 410.009 347.237V347.248ZM365.569 415.188C371.95 419.709 370.29 414.751 369.973 413.837C366.213 402.999 360.622 399.253 354.179 394.021C341.572 383.785 341.744 383.505 339.882 383.188C329.438 381.415 328.477 381.342 325.399 382.428C317.897 385.076 310.334 387.199 304.939 383.659C300.319 380.63 299.586 375.157 304.536 372.128C309.403 369.149 316.622 366.056 311.962 366.448C290.138 368.273 249.146 363.745 250.126 366.722C251.625 371.283 247.29 372.334 245.907 373.152C239.026 377.215 228.702 365.386 222.995 366.727C217.628 367.697 212.669 370.284 208.761 374.156C192.861 391.173 195.738 388.658 189.612 397.83C190.571 399.217 202.135 392.938 203.631 391.889C213.007 385.323 217.146 374.733 225.536 373.683C229.624 373.171 235.741 376.794 231.982 383.396C230.639 385.782 228.976 387.99 227.66 390.39C220.347 403.721 223.75 400.454 213.018 413.218C228.007 413.328 283.652 413.101 331.82 413.101C325.305 404.345 331.694 399.775 336.684 399.105C343.358 398.21 350.545 404.476 360.318 411.73C361.962 412.953 363.683 413.842 365.569 415.178V415.188ZM358.333 345.486C360.906 348.558 364.159 343.639 372.568 348.353C368.84 341.786 362.953 339.649 354.259 340.448C355.613 342.114 356.948 343.814 358.333 345.475V345.486ZM352.962 327.38C343.487 327.38 235.215 327.358 225.077 327.823L225.431 329.221C234.904 329.93 234.184 329.221 237.85 329.575C243.017 330.572 248.239 331.257 253.486 331.624C256.612 331.919 259.687 332.371 261.275 335.556H268.169C268.727 332.849 268.752 330.568 270.64 331.112C272.114 331.539 271.738 332.349 271.413 335.449C289.945 335.449 287.99 337.061 287.495 332.644C287.442 332.149 288.156 330.406 288.629 330.286C289.397 330.089 290.165 330.74 290.372 331.772C290.552 332.666 290.987 333.509 291.121 334.401C291.368 336.01 291.894 335.2 298.99 335.113C318.327 334.875 319.968 334.951 322.042 335.323C325.995 336.029 333.972 330.551 344.942 336.043C348.08 337.613 347.628 337.269 353.899 336.897C351.901 332.809 350.048 330.82 352.973 327.369L352.962 327.38ZM355.769 433.721C353.123 430.695 347.964 428.134 345.681 425.395C343.549 422.911 341.284 420.549 338.897 418.319C337.484 416.967 337.017 417.525 321.681 417.32C315.064 417.23 276.774 417.186 235.377 417.407C198.566 417.607 212.099 414.849 201.518 421.258C191.014 427.619 188.787 428.169 162.282 432.99C162.365 433.866 187.796 432.851 210.055 433.428C252.02 434.509 284.565 433.672 355.78 433.71L355.769 433.721ZM343.073 360.937C342.641 360.137 342.132 359.382 341.553 358.685C335.024 352.392 334.659 352.337 333.858 352.51C326.954 354.001 323.503 356.203 316.939 354.784C309.579 353.366 302.08 352.842 294.599 353.221C294.864 355.346 295.247 357.453 295.748 359.533C296.234 362.357 292.915 363.219 292.421 360.327C291.253 353.486 291.615 353.227 289.59 353.213C280.888 353.163 284.533 352.808 268.967 352.808C268.518 359.878 268.752 360.77 267.197 360.899C264.202 361.148 265.36 356.061 265.854 353.057C258.71 352.46 255.648 352.422 254.19 352.411C249.968 352.381 251.966 349.508 254.163 349.568C257.511 349.25 260.883 349.298 264.221 349.713C267.21 350.444 266.66 348.509 267.487 338.818C261.39 337.969 261.672 337.818 260.517 340.81C256.65 350.813 242.654 347.732 230.485 347.732C230.948 348.424 241.723 357.659 246.307 361.515C247.381 362.418 248.724 361.854 260.579 362.032C280.99 362.341 265.889 363.474 318.733 362.992C321.767 361.581 325.065 360.854 328.401 360.861C333.285 360.364 338.205 360.387 343.084 360.929L343.073 360.937ZM308.062 347.702C308.221 337.195 339.01 338.588 292.088 338.588L294.102 349.333C311.447 350.023 308.025 350.616 308.073 347.694L308.062 347.702ZM290.85 349.593L288.784 338.853C273.309 339.775 271.102 337.805 270.828 339.625C270.358 342.741 270.006 345.883 269.587 349.27C276.9 348.98 283.765 350.455 290.861 349.585L290.85 349.593ZM253.309 342.686C256.8 341.471 258.745 336.702 256.159 336.212C250.819 335.203 247.183 336.212 242.961 334.609C239.673 333.359 232.35 333.391 224.287 333.452C211.664 333.542 213.85 335.641 193.923 344.096C184.235 348.2 183.424 351.828 181.775 353.588C179.857 355.629 178.203 352.767 179.275 351.267C187.568 339.666 194.46 341.253 209.961 332.19C213.92 329.878 216.093 330.045 220.986 329.386C215.346 321.297 207.609 324.964 199.705 326.91C194.145 328.278 193.259 332.929 188.489 334.782C180.95 337.696 179.626 339.789 172.128 346.714C170.315 348.389 166.947 346.569 169.173 344.085C181.871 329.998 187.877 333.583 192.373 326.19C181.407 325.267 180.972 324.548 177.465 327.227C172.77 330.825 165.075 333.665 158.396 345.354C155.079 351.161 153.433 350.496 148.346 355.462C137.603 365.953 141.532 362.809 131.157 379.363C128.907 383.394 125.759 386.829 121.967 389.394C118.571 392.554 115.335 395.888 112.271 399.384C110.861 400.853 112.645 400.404 119.555 406.66C122.81 409.607 130.298 415.602 129.149 419.747C128.05 423.756 129.868 423.523 130.76 424.434C139.467 433.409 139.123 433.3 140.429 433.431C150.634 434.452 154.265 431.748 161.646 429.814C183.437 424.095 190.382 423.444 196.246 419.347C198.987 417.881 201.608 416.191 204.083 414.294C211.551 407.076 214.21 408.085 218.803 399.162C228.165 380.978 230.126 381.171 229.191 379.264C227.556 375.921 222.093 378.591 219.751 381.144C209.357 392.473 206.172 395.794 201.55 397.718C192.451 401.51 192.021 402.468 189.075 402.019C177.61 400.263 201.571 377.185 201.821 376.597C203.285 373.157 210.735 365.961 220.508 363.071C228.888 360.595 239.185 373.154 245.485 368.773C248.601 366.612 239.332 361.969 233.115 355.046C228.469 349.872 224.701 350.05 217.844 350.734C217.787 350.734 195.888 356.811 193.009 359.706C191.982 360.731 190.866 361.659 189.674 362.478C187.67 363.865 183.389 359.583 193.216 355.057C233.174 336.659 241.008 346.95 253.32 342.678L253.309 342.686ZM148.639 335.509C168.903 334.48 152.917 340.134 169.361 327.96C142.692 327.96 161.756 326.904 103.562 327.32C101.182 327.339 101.588 326.258 81.2273 355.815C77.8354 360.74 75.0502 361.952 81.0475 362.382C86.7923 362.801 100.64 362.527 127.83 362.642C140.705 362.697 133.496 365.348 145.349 352.28C131.584 352.28 136.486 351.459 132.726 359.563C132.578 359.928 132.297 360.221 131.943 360.379C131.589 360.539 131.188 360.552 130.824 360.418C130.46 360.284 130.161 360.012 129.989 359.658C129.817 359.305 129.785 358.898 129.9 358.521C130.236 356.393 130.875 354.326 131.796 352.386C124.776 351.593 129.232 351.697 114.323 351.565C108.998 351.516 110.166 352.956 106.369 358.975C105.896 359.725 105.326 360.647 104.195 360.04C102.13 358.932 103.86 356.978 106.881 351.76C97.331 350.104 96.5411 350.189 96.356 349.051C96.3546 348.799 96.4133 348.55 96.5268 348.326C96.6408 348.102 96.8058 347.91 97.0085 347.765C99.7264 346.227 100.876 348.438 108.128 348.137C109.82 348.066 113.872 339.34 114.573 337.901C102.531 336.675 99.2833 336.897 101.279 334.596C102.759 332.888 105.229 334.163 107.539 334.212C117.025 334.42 116.789 334.486 117.455 333.299C118.964 330.595 119.99 328.981 121.129 329.936C122.579 331.153 121.859 331.662 120.025 334.88C144.036 334.88 138.076 337.222 142.01 330.874C142.921 329.405 144.989 330.839 144.226 332.409C143.778 333.337 143.42 334.324 142.945 335.517C145.021 335.517 146.836 335.591 148.65 335.501L148.639 335.509ZM158.092 338.793C142.193 338.793 141.922 338.637 141.554 339.4C140.093 342.465 138.691 345.562 137.362 348.46C154.625 348.454 150.245 350.438 158.103 338.788L158.092 338.793ZM138.524 443.136C140.63 441.312 138.696 438.882 137.821 437.511C133.349 441.394 128.958 445.205 124.54 449.028C125.346 450.122 126.092 451.184 126.887 452.284C130.956 449.487 134.846 446.43 138.535 443.131L138.524 443.136ZM134.015 435.814C134.482 435.267 135.011 434.804 134.748 433.956C134.864 433.494 133.024 432.041 132.108 431.116C129.594 434.126 123.723 439.191 119.525 443.208C120.535 444.257 121.489 445.361 122.383 446.513C125.692 443.284 133.502 436.435 134.026 435.809L134.015 435.814ZM130.709 348.668C134.397 349.429 133.832 348.586 138.57 338.489C121.599 337.879 124.664 338.372 119.617 338.152C117.342 338.054 117.737 338.522 112.876 348.359C127.1 348.353 127.774 348.058 130.719 348.662L130.709 348.668ZM129.694 428.708L126.634 426.128C118.419 434.115 121.816 430.927 113.851 438.121L117.16 440.95L129.694 428.708ZM115.293 420.28C116.493 420.092 117.585 419.468 118.369 418.523C119.152 417.578 119.574 416.376 119.555 415.139C119.497 413.899 119.011 412.72 118.183 411.81C117.354 410.9 116.237 410.317 115.027 410.165C113.761 410.404 112.608 411.06 111.743 412.032C110.879 413.004 110.351 414.237 110.241 415.544C110.354 416.831 110.933 418.029 111.865 418.905C112.798 419.78 114.017 420.271 115.285 420.28H115.293ZM108.896 434.72C110.422 434.6 111.859 433.936 112.951 432.843C114.044 431.75 114.723 430.3 114.869 428.746C114.786 427.413 114.216 426.161 113.272 425.234C112.327 424.308 111.076 423.775 109.766 423.742C108.39 423.833 107.096 424.439 106.133 425.444C105.17 426.449 104.606 427.781 104.55 429.184C104.452 430.495 104.846 431.794 105.65 432.821C106.455 433.848 107.612 434.526 108.888 434.72H108.896ZM107.015 418.097C106.984 417.312 106.711 416.556 106.236 415.936C105.761 415.316 105.108 414.863 104.368 414.641C103.494 414.818 102.688 415.242 102.04 415.865C101.393 416.488 100.932 417.284 100.71 418.163C100.78 418.944 101.12 419.676 101.669 420.227C102.218 420.778 102.941 421.113 103.709 421.173C104.526 421.13 105.302 420.801 105.906 420.24C106.51 419.679 106.904 418.921 107.021 418.097H107.015ZM106.478 406.093C106.433 405.157 106.092 404.261 105.507 403.538C104.921 402.816 104.122 402.305 103.229 402.082C102.169 401.983 101.11 402.277 100.245 402.908C99.3801 403.54 98.7672 404.468 98.5182 405.521C98.4033 406.094 98.4099 406.685 98.5378 407.254C98.6651 407.824 98.9103 408.359 99.2575 408.824C99.6043 409.289 100.045 409.674 100.549 409.952C101.053 410.23 101.61 410.395 102.182 410.436C102.754 410.477 103.328 410.393 103.866 410.19C104.404 409.987 104.892 409.669 105.3 409.258C105.707 408.847 106.024 408.352 106.229 407.806C106.433 407.26 106.521 406.676 106.486 406.093H106.478ZM99.9172 426.634C99.8547 426.015 99.58 425.439 99.1421 425.006C98.7042 424.572 98.1304 424.31 97.5218 424.265C96.8464 424.307 96.2067 424.588 95.7126 425.059C95.2189 425.53 94.9012 426.161 94.8144 426.845C94.9351 427.456 95.2523 428.008 95.7164 428.414C96.18 428.819 96.7634 429.056 97.3739 429.086C97.9969 428.999 98.5774 428.716 99.0348 428.276C99.4922 427.837 99.8037 427.263 99.9253 426.634H99.9172ZM96.3908 414.89C96.314 414.062 96.0441 413.264 95.6028 412.563C95.1621 411.863 94.5635 411.28 93.8561 410.863C93.1492 410.446 92.355 410.207 91.5389 410.167C90.7232 410.127 89.91 410.285 89.1663 410.63C83.8646 414.004 86.0454 421.381 91.143 420.954C94.4438 420.675 96.1571 418.666 96.3908 414.89ZM78.3429 421.154C79.3341 420.365 79.6856 419.723 79.3875 418.573C78.8829 416.636 80.3892 416.431 72.5017 416.094C72.4449 416.094 40.6812 416.814 26.9438 415.23C28.7245 429.401 27.9805 432.78 33.2338 432.93C42.8378 433.204 50.8305 433.363 62.6022 433.146C64.917 433.106 65.7737 431.152 78.3377 421.154H78.3429Z" fill="#000001"/>
<path d="M422.647 79.705C423.935 164.914 422.515 281.987 421.559 292.521C420.882 299.975 396.654 299.417 104.108 296.724C102.879 296.705 101.691 296.273 100.727 295.496C99.7627 294.719 99.0778 293.64 98.7768 292.425C97.7699 288.322 97.0071 194.835 97.0071 194.781C97.2218 124.276 96.6151 95.7696 97.4717 83.361C98.0842 74.4979 101.952 71.0257 109.02 70.8153C122.986 69.5921 144.187 71.7838 197.482 71.0889C206.546 70.9713 406.876 70.6593 413.606 71.0014C415.918 71.0068 418.14 71.9107 419.819 73.5279C421.499 75.1452 422.511 77.3544 422.647 79.705ZM418.873 271.392C420.06 193.648 419.475 84.4087 419.3 81.1581C419.351 80.2313 419.201 79.3046 418.862 78.4435C418.522 77.5824 418 76.8082 417.334 76.175C416.668 75.5423 415.873 75.0665 415.006 74.7813C414.139 74.4965 413.221 74.409 412.317 74.5256C379.304 73.9099 118.769 74.1864 113.814 74.271C104.721 74.4216 101.02 76.1016 101.036 87.4596C101.063 105.461 101.471 266.659 101.788 283.648C102.408 290.387 100.431 292.529 109.643 292.811C128.47 293.389 192.071 290.765 405.254 292.122C420.058 292.22 418.5 295.838 418.873 271.392Z" fill="#000001"/>
<path d="M393.883 170.742C394.285 174.683 394.487 194.219 394.248 204.713C394.146 209.129 394.366 211.537 389.016 212.013C382.433 212.601 308.947 212.139 290.292 212.196C281.499 212.223 147.458 212.47 140.362 211.57C134.472 210.828 134.325 209.756 134.223 202.677C134.156 198.001 134.099 174.767 134.446 170.969C135.155 163.19 135.888 166.266 221.489 165.656C281.778 165.226 354.701 165.305 376.407 165.412C392.98 165.502 393.326 165.302 393.883 170.742ZM391.465 201.916C391.734 195.437 391.543 183.416 391.03 172.693C390.872 169.41 391.084 168.529 386.876 168.233C383.008 167.96 336.325 167.982 331.298 167.96C261.714 167.757 292.508 168.83 202.33 168.219C166.857 167.982 148.814 168.192 141.74 168.619C138.751 168.799 137.497 168.791 137.26 171.675C136.865 176.502 136.791 194.348 136.992 202.297C137.11 207.4 136.839 208.907 143.188 209.091C143.725 209.107 383.758 209.912 389.317 208.885C391.874 208.428 391.369 204.428 391.476 201.916H391.465Z" fill="#000001"/>
<path d="M393.883 233.205C394.285 237.146 394.487 256.676 394.248 267.17C394.146 271.592 394.366 273.994 389.016 274.471C382.433 275.059 308.947 274.596 290.292 274.654C282.667 274.676 147.608 274.927 140.362 274.027C134.472 273.286 134.325 272.219 134.223 265.134C134.156 260.483 134.099 237.225 134.446 233.432C135.152 225.678 135.775 228.723 221.489 228.119C281.778 227.694 354.701 227.757 376.407 227.869C392.87 227.954 393.324 227.738 393.883 233.205ZM391.465 264.374C391.734 257.894 391.543 245.874 391.03 235.151C390.872 231.867 391.03 230.896 386.827 230.603C382.213 230.28 337.926 230.445 331.298 230.425C261.714 230.225 292.508 231.296 202.33 230.685C166.857 230.447 148.814 230.669 141.74 231.09C138.751 231.271 137.497 231.257 137.26 234.147C136.865 238.973 136.791 256.814 136.992 264.762C137.11 269.865 136.839 271.376 143.188 271.562C143.805 271.581 383.809 272.358 389.317 271.357C391.876 270.891 391.369 266.894 391.476 264.374H391.465Z" fill="#000001"/>
<path d="M299.885 103.068C300.473 101.902 303.581 103.588 303.146 104.685C301.666 108.409 297.922 114.883 297.009 116.64C296.456 117.707 295.419 117.152 294.718 116.752C294.299 116.689 288.971 113.799 283.398 110.855C282.697 110.483 283.129 108.983 283.715 108.264C284.163 107.717 284.558 107.717 285.227 108.031C287.233 108.962 291.114 110.975 292.094 111.559C292.873 112.024 292.787 111.419 292.661 110.787C290.944 103.024 286.312 96.2546 279.756 91.9285C268.557 84.6556 249.945 86.7297 240.488 95.8882C237.371 99.026 234.947 102.805 233.376 106.972C231.804 111.14 231.122 115.6 231.376 120.057C231.483 128.351 234.808 136.264 240.624 142.067C246.44 147.871 254.274 151.094 262.414 151.032C277.871 150.446 289.91 140.82 292.905 125.858C293.043 125.127 293.256 124.412 293.542 123.727C293.864 123.094 294.914 123.179 295.196 123.234C296.851 123.557 296.655 124.796 296.647 124.985C296.589 125.962 296.448 126.932 296.225 127.883C294.415 135.632 290.065 142.52 283.892 147.409C277.72 152.297 270.095 154.894 262.277 154.769C257.628 154.768 253.027 153.817 248.745 151.972C244.463 150.127 240.588 147.426 237.349 144.028C234.111 140.63 231.573 136.605 229.889 132.191C228.204 127.776 227.406 123.062 227.541 118.328C228.032 103.06 236.339 90.7875 250.251 86.1086C268.981 79.8154 289.462 86.6723 295.655 108.302C295.774 108.718 295.924 109.057 296.023 109.413C296.394 110.642 296.636 109.495 299.885 103.068Z" fill="#000001"/>
<path d="M279.455 133.915C279.785 136.063 279.03 136.815 277.87 136.892C277.333 136.93 253.669 137.045 248.008 136.944C244.409 136.878 245.207 134.659 245.564 132.019C246.456 125.422 248.099 111.171 248.15 110.676C248.419 108.013 249.745 108.862 252.302 108.517C252.772 108.454 252.748 108.323 252.81 107.458C253.272 100.976 256.014 96.4145 262.344 96.4145C268.674 96.4145 271.417 100.957 271.881 107.458C271.946 108.323 271.916 108.493 272.389 108.517C275.988 108.706 276.073 108.243 276.538 110.676C276.648 111.24 278.789 129.556 279.455 133.915ZM266.76 131.452C268.027 131.406 268.156 130.735 267.799 129.594C267.278 127.928 266.289 123.93 265.43 121.512C265.396 121.415 265.398 121.31 265.435 121.215C265.472 121.121 265.542 121.043 265.632 120.997C266.349 120.605 266.93 119.998 267.296 119.257C267.661 118.515 267.793 117.677 267.673 116.857C267.272 113.847 265.669 112.438 262.18 112.479C261.151 112.331 260.102 112.546 259.208 113.087C258.315 113.628 257.629 114.465 257.265 115.457C256.901 116.449 256.881 117.538 257.207 118.544C257.533 119.55 258.187 120.413 259.06 120.989C259.148 121.036 259.217 121.114 259.254 121.208C259.291 121.302 259.293 121.407 259.261 121.503C258.415 123.927 257.413 127.923 256.892 129.586C256.5 130.845 256.624 131.438 258.286 131.45C259.164 131.474 265.9 131.496 266.76 131.463V131.452ZM264.836 108.525C265.489 108.512 266.897 108.692 266.861 107.915C266.724 104.88 266.308 102.076 263.333 101.441C262.68 101.303 262.008 101.303 261.356 101.441C258.378 102.076 257.966 104.875 257.829 107.915C257.795 108.692 259.202 108.512 259.854 108.525C260.59 108.55 264.095 108.55 264.836 108.536V108.525Z" fill="#000001"/>
<path d="M277.335 188.471C277.534 189.646 277.555 190.846 277.4 192.028C277.308 192.734 276.833 192.575 276.492 192.575C274.725 192.654 272.955 192.618 271.193 192.466C270.895 192.441 270.86 192.677 270.975 192.781C271.091 192.885 271.295 193.005 271.483 193.158C272.816 194.219 274.031 195.425 275.109 196.754C275.337 197.67 274.701 198.163 273.07 199.627C271.239 201.268 271.51 200.541 267.79 196.307C267.778 196.293 267.761 196.284 267.742 196.28C267.724 196.275 267.705 196.277 267.687 196.285C267.67 196.292 267.655 196.305 267.645 196.322C267.635 196.338 267.631 196.357 267.632 196.376C267.739 198.228 267.691 200.27 267.715 201.506C267.731 202.409 267.53 202.349 266.963 202.472C266.084 202.604 265.193 202.633 264.307 202.56C263.233 202.467 262.634 202.711 262.623 201.673C262.623 200.415 262.685 197.876 262.792 196.409C262.795 196.386 262.791 196.364 262.779 196.344C262.768 196.324 262.75 196.309 262.73 196.301C262.709 196.293 262.686 196.292 262.665 196.299C262.643 196.306 262.625 196.319 262.612 196.338C259.019 200.631 259.36 201.148 257.534 199.504C255.903 198.039 255.267 197.547 255.495 196.636C256.513 195.349 257.67 194.182 258.944 193.158C259.129 193.005 259.336 192.885 259.448 192.781C259.561 192.677 259.526 192.403 259.231 192.466C257.507 192.735 255.76 192.809 254.021 192.688C253.677 192.66 252.981 192.663 252.981 191.949C252.821 190.835 252.736 189.711 252.726 188.586C252.764 188.099 252.882 187.801 253.263 187.705C255.07 187.532 256.887 187.494 258.699 187.59C258.911 187.59 259.118 187.428 258.987 187.267C258.667 186.873 257.356 186.14 255.372 184.561C253.849 183.349 253.561 182.993 254.434 181.926C256.803 179.028 256.65 178.861 257.767 179.513C259.303 180.596 260.774 181.772 262.172 183.034C262.202 183.055 262.236 183.068 262.273 183.071C262.309 183.074 262.345 183.066 262.378 183.05C262.41 183.033 262.437 183.008 262.457 182.977C262.476 182.945 262.487 182.91 262.489 182.872C262.489 181.253 262.336 179.316 262.384 178.125C262.416 177.304 262.4 177.055 263.163 176.878C264.52 176.765 265.883 176.765 267.24 176.878C268.002 177.055 267.989 177.304 268.024 178.125C268.075 179.302 267.93 181.253 267.922 182.872C267.923 182.909 267.933 182.946 267.952 182.977C267.971 183.008 267.999 183.033 268.031 183.05C268.063 183.067 268.1 183.074 268.136 183.071C268.172 183.068 268.206 183.056 268.236 183.034C269.63 181.769 271.099 180.593 272.635 179.513C273.642 178.927 273.551 178.845 275.968 181.926C276.819 183.02 276.554 183.349 275.031 184.561C273.049 186.14 271.521 186.873 271.199 187.267C270.661 187.94 274.714 187.428 276.801 187.716C277.209 187.765 277.225 187.995 277.335 188.471Z" fill="#000001"/>
<path d="M277.335 250.938C277.531 252.107 277.553 253.3 277.4 254.476C277.308 255.187 276.833 255.023 276.492 255.023C274.725 255.103 272.955 255.069 271.193 254.919C270.895 254.892 270.86 255.125 270.975 255.229C271.091 255.332 271.295 255.453 271.483 255.606C272.816 256.667 274.031 257.873 275.109 259.202C275.337 260.118 274.701 260.611 273.07 262.075C271.239 263.716 271.41 263.079 267.79 258.761C267.779 258.746 267.762 258.735 267.744 258.729C267.726 258.724 267.706 258.725 267.688 258.732C267.67 258.739 267.655 258.752 267.645 258.769C267.635 258.785 267.63 258.805 267.632 258.824C267.739 260.682 267.691 262.723 267.715 263.954C267.731 264.863 267.53 264.797 266.963 264.92C266.084 265.052 265.193 265.081 264.307 265.008C263.233 264.915 262.634 265.159 262.623 264.127C262.623 262.863 262.685 260.324 262.792 258.857C262.793 258.835 262.787 258.814 262.775 258.796C262.764 258.778 262.747 258.764 262.727 258.756C262.707 258.748 262.686 258.747 262.665 258.752C262.644 258.757 262.626 258.769 262.612 258.786C258.93 262.999 259.36 263.601 257.534 261.957C255.903 260.493 255.267 260 255.495 259.084C256.512 257.796 257.669 256.629 258.944 255.606C259.129 255.453 259.336 255.332 259.448 255.229C259.561 255.125 259.526 254.851 259.231 254.919C257.507 255.183 255.76 255.255 254.021 255.135C253.677 255.108 252.981 255.114 252.981 254.402C252.822 253.289 252.737 252.167 252.726 251.042C252.764 250.552 252.882 250.249 253.263 250.153C255.07 249.982 256.887 249.945 258.699 250.044C258.911 250.044 259.115 249.882 258.987 249.72C258.664 249.321 257.356 248.588 255.372 247.009C253.849 245.797 253.558 245.439 254.434 244.374C256.808 241.479 256.647 241.304 257.767 241.96C259.307 243.038 260.779 244.214 262.172 245.482C262.201 245.504 262.236 245.518 262.273 245.521C262.309 245.524 262.346 245.517 262.379 245.5C262.411 245.484 262.439 245.458 262.459 245.426C262.478 245.395 262.488 245.358 262.489 245.32C262.475 243.701 262.336 241.764 262.384 240.573C262.416 239.752 262.4 239.509 263.163 239.326C264.52 239.222 265.883 239.222 267.24 239.326C268.287 239.577 268.045 239.695 267.922 245.32C267.92 245.358 267.93 245.396 267.948 245.428C267.967 245.461 267.995 245.487 268.028 245.504C268.061 245.521 268.098 245.528 268.135 245.525C268.172 245.52 268.207 245.506 268.236 245.482C269.631 244.219 271.1 243.043 272.635 241.96C273.172 241.646 273.441 241.443 273.943 241.939C274.658 242.716 275.315 243.542 275.968 244.374C276.822 245.468 276.554 245.797 275.031 247.009C273.049 248.588 271.521 249.321 271.199 249.72C270.661 250.399 274.784 249.89 276.801 250.164C277.209 250.227 277.225 250.462 277.335 250.938Z" fill="#000001"/>
<path d="M252.162 62.2453C252.812 54.6084 261.17 56.732 260.354 62.4805C259.538 68.2295 254.413 66.8396 252.772 64.1498C252.496 63.5418 252.291 62.9023 252.162 62.2453Z" fill="#000001"/>
<path d="M241.463 188.471C241.663 189.646 241.685 190.846 241.527 192.028C241.436 192.734 240.964 192.575 240.62 192.575C238.855 192.653 237.087 192.616 235.326 192.466C235.023 192.441 234.991 192.677 235.103 192.78C235.216 192.884 235.423 193.005 235.611 193.158C236.947 194.218 238.164 195.424 239.242 196.754C239.473 197.668 238.829 198.163 237.201 199.627C235.367 201.268 235.541 200.631 231.924 196.307C231.911 196.292 231.894 196.281 231.875 196.277C231.856 196.272 231.836 196.273 231.818 196.281C231.8 196.289 231.785 196.302 231.775 196.319C231.765 196.336 231.76 196.356 231.762 196.376C231.819 198.231 231.822 200.27 231.843 201.506C231.859 202.409 231.663 202.349 231.091 202.472C230.213 202.603 229.324 202.632 228.44 202.56C227.366 202.467 226.77 202.711 226.759 201.673C226.772 199.917 226.827 198.162 226.925 196.409C226.926 196.387 226.92 196.365 226.908 196.346C226.896 196.328 226.878 196.314 226.857 196.306C226.837 196.298 226.815 196.297 226.794 196.303C226.773 196.308 226.754 196.321 226.74 196.338C223.249 200.716 223.49 201.148 221.662 199.504C220.034 198.039 219.392 197.547 219.626 196.636C220.643 195.349 221.798 194.182 223.072 193.158C223.257 193.005 223.464 192.884 223.579 192.78C223.695 192.677 223.654 192.403 223.362 192.466C221.637 192.735 219.889 192.809 218.149 192.688C217.808 192.66 217.109 192.663 217.109 191.949C216.953 190.835 216.868 189.711 216.854 188.586C216.897 188.099 217.012 187.801 217.391 187.705C219.199 187.532 221.017 187.494 222.83 187.59C223.036 187.59 223.243 187.428 223.098 187.267C222.779 186.873 221.468 186.137 219.488 184.561C217.969 183.349 217.697 183.01 218.549 181.926C220.993 178.804 220.904 178.943 221.884 179.513C223.416 180.599 224.885 181.775 226.284 183.034C226.313 183.056 226.348 183.07 226.384 183.073C226.421 183.076 226.458 183.069 226.491 183.052C226.524 183.036 226.551 183.01 226.57 182.978C226.59 182.947 226.6 182.91 226.6 182.872C226.6 181.253 226.45 179.316 226.495 178.125C226.531 177.304 226.517 177.055 227.274 176.878C228.632 176.765 229.997 176.765 231.354 176.878C232.114 177.055 232.101 177.304 232.138 178.125C232.189 179.302 232.044 181.253 232.034 182.872C232.035 182.909 232.046 182.945 232.065 182.976C232.085 183.008 232.112 183.033 232.145 183.049C232.177 183.066 232.214 183.073 232.25 183.071C232.286 183.068 232.321 183.055 232.351 183.034C233.744 181.768 235.213 180.592 236.75 179.513C237.754 178.927 237.663 178.845 240.08 181.926C240.934 183.02 240.665 183.349 239.145 184.561C237.16 186.14 235.633 186.873 235.31 187.267C234.773 187.94 238.826 187.428 240.915 187.716C241.339 187.765 241.356 187.995 241.463 188.471Z" fill="#000001"/>
<path d="M241.463 250.938C241.662 252.107 241.683 253.3 241.527 254.476C241.436 255.187 240.964 255.023 240.62 255.023C238.855 255.103 237.087 255.069 235.326 254.919C235.023 254.892 234.991 255.125 235.103 255.229C235.216 255.333 235.423 255.453 235.611 255.606C236.947 256.666 238.164 257.871 239.242 259.202C239.473 260.116 238.829 260.611 237.201 262.075C235.367 263.716 235.541 263.079 231.924 258.761C231.911 258.746 231.895 258.736 231.876 258.731C231.858 258.726 231.839 258.727 231.821 258.734C231.803 258.741 231.788 258.754 231.778 258.77C231.767 258.786 231.762 258.805 231.762 258.824C231.864 260.682 231.822 262.723 231.843 263.954C231.859 264.863 231.663 264.797 231.091 264.92C230.214 265.052 229.324 265.081 228.44 265.008C227.366 264.915 226.77 265.159 226.759 264.127C226.772 262.369 226.827 260.612 226.925 258.857C226.926 258.835 226.92 258.813 226.908 258.794C226.896 258.776 226.878 258.762 226.857 258.754C226.837 258.746 226.815 258.745 226.794 258.751C226.773 258.756 226.754 258.769 226.74 258.786C223.061 262.999 223.49 263.601 221.662 261.957C220.034 260.493 219.392 260 219.626 259.084C220.643 257.797 221.798 256.63 223.072 255.606C223.257 255.453 223.464 255.333 223.579 255.229C223.695 255.125 223.654 254.851 223.362 254.919C221.636 255.183 219.889 255.255 218.149 255.135C217.808 255.108 217.109 255.114 217.109 254.402C216.953 253.289 216.868 252.167 216.854 251.042C216.897 250.552 217.012 250.249 217.391 250.153C219.199 249.982 221.017 249.945 222.83 250.044C223.036 250.044 223.243 249.882 223.098 249.72C222.776 249.321 221.468 248.588 219.488 247.009C217.969 245.797 217.697 245.455 218.549 244.374C220.99 241.26 220.907 241.391 221.884 241.96C223.421 243.041 224.89 244.217 226.284 245.482C226.313 245.506 226.348 245.52 226.385 245.524C226.421 245.527 226.459 245.52 226.492 245.504C226.525 245.487 226.553 245.46 226.572 245.428C226.591 245.396 226.601 245.358 226.6 245.32C226.563 239.876 226.131 239.602 227.274 239.326C228.632 239.222 229.996 239.222 231.354 239.326C232.399 239.577 232.16 239.695 232.034 245.32C232.033 245.358 232.042 245.396 232.062 245.428C232.081 245.46 232.109 245.487 232.142 245.504C232.175 245.52 232.212 245.527 232.249 245.524C232.286 245.52 232.321 245.506 232.351 245.482C233.744 244.216 235.213 243.04 236.75 241.96C237.287 241.646 237.555 241.443 238.055 241.939C238.769 242.716 239.427 243.542 240.08 244.374C240.934 245.468 240.665 245.797 239.145 247.009C237.16 248.588 235.633 249.321 235.31 249.72C234.773 250.399 238.898 249.89 240.915 250.164C241.339 250.227 241.356 250.462 241.463 250.938Z" fill="#000001"/>
<path d="M205.595 188.471C205.793 189.647 205.814 190.846 205.657 192.028C205.566 192.734 205.093 192.575 204.749 192.575C202.985 192.654 201.218 192.617 199.458 192.466C199.158 192.441 199.12 192.677 199.241 192.781C199.361 192.885 199.56 193.005 199.746 193.158C201.078 194.22 202.293 195.425 203.371 196.754C203.605 197.668 202.96 198.163 201.33 199.627C199.496 201.268 199.67 200.631 196.055 196.307C196.042 196.293 196.025 196.283 196.007 196.278C195.988 196.274 195.968 196.275 195.95 196.283C195.932 196.29 195.916 196.304 195.906 196.32C195.896 196.337 195.891 196.356 195.892 196.376C195.948 198.231 195.951 200.27 195.972 201.506C195.989 202.409 195.792 202.349 195.223 202.472C194.344 202.603 193.454 202.632 192.569 202.56C191.495 202.467 190.899 202.711 190.888 201.673C190.872 200.415 190.98 197.878 191.057 196.409C191.06 196.386 191.055 196.364 191.044 196.344C191.033 196.324 191.015 196.309 190.995 196.301C190.974 196.293 190.951 196.292 190.93 196.299C190.909 196.306 190.89 196.319 190.878 196.338C187.284 200.631 187.628 201.145 185.796 199.504C184.163 198.039 183.524 197.547 183.755 196.636C184.774 195.349 185.932 194.183 187.206 193.158C187.389 193.005 187.593 192.885 187.714 192.781C187.834 192.677 187.783 192.403 187.491 192.466C185.767 192.735 184.02 192.809 182.28 192.688C181.937 192.66 181.241 192.663 181.241 191.949C181.079 190.835 180.99 189.711 180.972 188.586C181.018 188.099 181.136 187.801 181.523 187.705C183.331 187.531 185.148 187.493 186.961 187.59C187.168 187.59 187.378 187.426 187.251 187.267C186.93 186.868 185.616 186.137 183.637 184.561C182.114 183.349 181.848 183.01 182.7 181.926C185.116 178.831 185.042 178.935 186.032 179.513C187.564 180.599 189.033 181.775 190.432 183.034C190.461 183.057 190.495 183.07 190.532 183.074C190.568 183.077 190.605 183.07 190.638 183.053C190.671 183.036 190.698 183.01 190.717 182.978C190.736 182.947 190.746 182.91 190.746 182.872C190.746 181.253 190.595 179.316 190.644 178.125C190.676 177.304 190.665 177.055 191.423 176.878C192.781 176.765 194.146 176.765 195.505 176.878C196.262 177.055 196.251 177.304 196.284 178.125C196.332 179.302 196.19 181.253 196.179 182.872C196.179 182.91 196.19 182.947 196.209 182.978C196.228 183.01 196.256 183.036 196.289 183.052C196.321 183.069 196.358 183.076 196.395 183.073C196.432 183.07 196.466 183.056 196.496 183.034C197.893 181.773 199.362 180.597 200.895 179.513C201.907 178.924 201.814 178.848 204.228 181.926C205.079 183.02 204.811 183.349 203.291 184.561C201.311 186.137 199.778 186.873 199.458 187.267C198.921 187.94 202.974 187.428 205.06 187.716C205.469 187.765 205.485 187.995 205.595 188.471Z" fill="#000001"/>
<path d="M205.595 250.938C205.792 252.107 205.812 253.3 205.657 254.476C205.566 255.187 205.093 255.023 204.749 255.023C202.985 255.103 201.218 255.069 199.458 254.919C199.158 254.892 199.12 255.125 199.241 255.229C199.361 255.332 199.56 255.453 199.746 255.606C201.078 256.668 202.293 257.873 203.371 259.202C203.605 260.116 202.96 260.611 201.33 262.075C199.496 263.716 199.67 263.079 196.055 258.761C196.043 258.747 196.026 258.736 196.008 258.732C195.989 258.728 195.97 258.729 195.952 258.736C195.935 258.742 195.919 258.754 195.908 258.77C195.898 258.786 195.892 258.805 195.892 258.824C195.994 260.682 195.951 262.723 195.972 263.954C195.989 264.863 195.792 264.797 195.223 264.92C194.344 265.052 193.454 265.081 192.569 265.008C191.495 264.915 190.899 265.159 190.888 264.127C190.872 262.863 190.98 260.326 191.057 258.857C191.058 258.835 191.052 258.814 191.041 258.796C191.029 258.778 191.012 258.764 190.992 258.756C190.972 258.748 190.951 258.747 190.93 258.752C190.91 258.757 190.891 258.769 190.878 258.786C187.292 263.084 187.628 263.599 185.796 261.957C184.163 260.493 183.521 260 183.755 259.084C184.774 257.797 185.932 256.631 187.206 255.606C187.389 255.453 187.593 255.332 187.714 255.229C187.834 255.125 187.783 254.851 187.491 254.919C185.767 255.183 184.02 255.255 182.28 255.135C181.937 255.108 181.241 255.114 181.241 254.402C181.079 253.289 180.99 252.167 180.972 251.042C181.018 250.552 181.136 250.249 181.523 250.153C183.331 249.98 185.148 249.944 186.961 250.044C187.168 250.044 187.378 249.879 187.251 249.72C186.93 249.318 185.616 248.588 183.637 247.009C182.114 245.797 181.845 245.458 182.7 244.374C185.157 241.247 185.055 241.389 186.032 241.96C187.568 243.042 189.037 244.218 190.432 245.482C190.461 245.506 190.495 245.52 190.532 245.525C190.569 245.528 190.607 245.521 190.64 245.504C190.673 245.487 190.701 245.461 190.719 245.428C190.738 245.396 190.747 245.358 190.746 245.32C190.711 239.876 190.278 239.602 191.423 239.326C192.781 239.222 194.146 239.222 195.505 239.326C196.262 239.509 196.251 239.758 196.284 240.573C196.332 241.75 196.192 243.701 196.179 245.32C196.178 245.358 196.188 245.396 196.207 245.428C196.227 245.46 196.254 245.487 196.287 245.504C196.321 245.52 196.358 245.527 196.394 245.524C196.432 245.52 196.466 245.506 196.496 245.482C197.889 244.216 199.358 243.04 200.895 241.96C201.902 241.375 201.811 241.299 204.228 244.374C205.079 245.468 204.811 245.797 203.291 247.009C201.311 248.585 199.781 249.321 199.458 249.72C198.921 250.399 203.044 249.89 205.06 250.164C205.469 250.227 205.485 250.462 205.595 250.938Z" fill="#000001"/>
<path d="M169.727 188.471C169.942 189.645 169.967 190.846 169.8 192.028C169.706 192.734 169.233 192.575 168.884 192.575C167.12 192.653 165.353 192.616 163.593 192.466C163.293 192.441 163.255 192.677 163.376 192.781C163.496 192.885 163.695 193.005 163.881 193.158C165.213 194.22 166.428 195.425 167.506 196.754C167.74 197.668 167.098 198.16 165.465 199.627C163.631 201.268 163.805 200.631 160.19 196.307C160.177 196.293 160.16 196.283 160.142 196.278C160.123 196.274 160.103 196.275 160.085 196.283C160.067 196.29 160.052 196.304 160.041 196.32C160.031 196.337 160.026 196.356 160.027 196.376C160.083 198.231 160.086 200.27 160.107 201.506C160.124 202.409 159.927 202.349 159.358 202.472C158.479 202.603 157.589 202.632 156.704 202.56C154.661 202.382 154.9 203.323 155.192 196.409C155.195 196.386 155.19 196.364 155.179 196.344C155.168 196.324 155.15 196.309 155.13 196.301C155.109 196.293 155.086 196.292 155.065 196.299C155.044 196.306 155.025 196.319 155.013 196.338C151.419 200.631 151.76 201.148 149.931 199.504C148.304 198.039 147.656 197.547 147.89 196.636C148.909 195.349 150.067 194.182 151.341 193.158C151.529 193.005 151.728 192.885 151.849 192.781C151.969 192.677 151.924 192.403 151.631 192.466C149.908 192.735 148.16 192.809 146.421 192.688C146.072 192.66 145.376 192.663 145.376 191.949C145.218 190.835 145.134 189.711 145.124 188.586C145.161 188.099 145.282 187.801 145.661 187.705C147.468 187.531 149.286 187.493 151.099 187.59C151.312 187.59 151.518 187.428 151.389 187.267C151.067 186.873 149.757 186.14 147.774 184.561C146.252 183.349 145.986 183.01 146.837 181.926C149.254 178.831 149.179 178.935 150.17 179.513C151.706 180.593 153.176 181.769 154.569 183.034C154.611 183.063 154.662 183.075 154.713 183.066C154.763 183.058 154.807 183.029 154.838 182.988C154.98 182.788 154.703 179.704 154.774 178.125C154.808 177.304 154.795 177.055 155.558 176.878C156.914 176.765 158.278 176.765 159.635 176.878C160.392 177.055 160.378 177.304 160.414 178.125C160.462 179.302 160.32 181.253 160.309 182.872C160.309 182.91 160.319 182.947 160.339 182.978C160.358 183.01 160.386 183.036 160.418 183.052C160.451 183.069 160.488 183.076 160.525 183.073C160.561 183.07 160.596 183.056 160.625 183.034C162.024 181.775 163.493 180.599 165.025 179.513C166.171 178.848 166.021 179.061 168.363 181.926C169.236 182.993 168.941 183.349 167.421 184.561C165.441 186.137 163.908 186.873 163.588 187.267C163.051 187.94 167.114 187.428 169.195 187.716C169.607 187.765 169.639 187.992 169.727 188.471Z" fill="#000001"/>
<path d="M169.727 250.938C169.941 252.106 169.965 253.3 169.8 254.476C169.706 255.187 169.233 255.023 168.884 255.023C167.12 255.103 165.353 255.069 163.593 254.919C163.293 254.892 163.255 255.125 163.376 255.229C163.496 255.332 163.695 255.453 163.881 255.606C165.213 256.668 166.428 257.873 167.506 259.202C167.74 260.116 167.098 260.608 165.465 262.075C163.631 263.716 163.805 263.079 160.19 258.761C160.178 258.747 160.161 258.736 160.143 258.732C160.124 258.728 160.105 258.729 160.087 258.736C160.07 258.742 160.054 258.754 160.043 258.77C160.033 258.786 160.027 258.805 160.027 258.824C160.129 260.682 160.086 262.723 160.107 263.954C160.123 264.863 159.927 264.797 159.358 264.92C158.479 265.052 157.589 265.081 156.704 265.008C155.63 264.915 155.034 265.159 155.023 264.127C155.007 262.863 155.122 260.326 155.192 258.857C155.193 258.835 155.187 258.814 155.176 258.796C155.164 258.778 155.147 258.764 155.127 258.756C155.107 258.748 155.086 258.747 155.065 258.752C155.045 258.757 155.026 258.769 155.013 258.786C151.395 263.057 151.76 263.601 149.931 261.957C148.304 260.493 147.656 260 147.89 259.084C148.909 257.797 150.067 256.63 151.341 255.606C151.529 255.453 151.728 255.332 151.849 255.229C151.969 255.125 151.924 254.851 151.631 254.919C149.907 255.181 148.16 255.254 146.421 255.135C146.072 255.108 145.376 255.114 145.376 254.402C145.218 253.289 145.134 252.167 145.124 251.042C145.161 250.552 145.282 250.249 145.661 250.153C147.468 249.98 149.286 249.944 151.099 250.044C151.312 250.044 151.518 249.882 151.389 249.72C151.067 249.321 149.757 248.588 147.774 247.009C146.252 245.797 145.983 245.458 146.837 244.374C149.294 241.247 149.192 241.389 150.17 241.96C151.706 243.042 153.175 244.218 154.569 245.482C154.598 245.506 154.633 245.52 154.67 245.525C154.707 245.528 154.744 245.521 154.777 245.504C154.81 245.487 154.838 245.461 154.857 245.428C154.876 245.396 154.885 245.358 154.883 245.32C154.76 239.706 154.524 239.574 155.565 239.326C156.923 239.222 158.286 239.222 159.643 239.326C160.4 239.509 160.389 239.758 160.421 240.573C160.47 241.75 160.327 243.701 160.317 245.32C160.316 245.358 160.326 245.396 160.345 245.428C160.364 245.46 160.392 245.487 160.425 245.504C160.458 245.52 160.496 245.527 160.532 245.524C160.569 245.52 160.604 245.506 160.633 245.482C162.027 244.217 163.496 243.041 165.033 241.96C166.15 241.309 165.973 241.449 168.371 244.374C169.246 245.439 168.948 245.797 167.429 247.009C165.449 248.585 163.918 249.321 163.596 249.72C163.059 250.399 167.192 249.89 169.204 250.164C169.607 250.227 169.639 250.46 169.727 250.938Z" fill="#000001"/>
</svg>
